<svg width="160" height="48" viewBox="0 0 160 48" fill="none" xmlns="http://www.w3.org/2000/svg">
<g clip-path="url(#clip0_3_71592)">
<path d="M39.5633 30.8467C39.561 30.8245 39.2945 28.5987 38.8294 26.7164L38.8086 26.6283C38.7093 26.2288 38.6083 25.8133 38.5077 25.3851C40.4585 25.2147 42.4027 25.3942 44.2941 25.9292C43.6556 30.6365 41.4481 35.0119 38.0391 38.3511C39.1204 36.1031 39.659 33.4771 39.5633 30.8467Z" fill="#3094A4"/>
<path d="M6.47658 25.298C6.91221 25.298 7.35949 25.3195 7.84046 25.3617C7.73262 25.8219 7.62232 26.2722 7.51204 26.7164C7.04884 28.5986 6.78171 30.8245 6.77741 30.8589C6.67754 33.6712 7.33008 36.5472 8.58611 38.8945C4.88539 35.5191 2.4885 30.982 1.79492 26.0093C3.33831 25.5381 4.91174 25.298 6.47658 25.298Z" fill="#3094A4"/>
<path d="M9.03233 27.09C9.14997 26.6085 9.27374 26.1042 9.39505 25.5822C16.9791 26.9865 22.4664 33.5692 22.4664 41.2893C22.4664 42.0711 22.3923 42.8903 22.233 43.8633C21.529 43.9895 20.8667 44.0508 20.2123 44.0508C19.0666 44.0508 17.9227 43.8915 16.8149 43.5814C16.2941 43.424 15.7825 43.2298 15.3064 43.0441C13.9015 42.4332 12.665 41.5798 11.6314 40.5051C9.35708 38.1394 8.22971 34.9534 8.37124 31.2999C8.37368 31.2748 8.61326 28.7909 9.03233 27.09Z" fill="#3094A4"/>
<path d="M9.72656 24.0525C10.1726 21.7878 10.3148 19.8879 10.1671 18.1343C13.3599 21.9154 17.9877 23.8722 22.0867 25.6056C27.8307 28.0356 32.3683 29.9551 31.4603 35.7385L31.4585 35.7978C30.2613 39.4282 27.4447 42.2711 23.8848 43.4536C23.9841 42.6687 24.0326 41.9586 24.0326 41.2895C24.0326 32.8373 18.0262 25.6136 9.72656 24.0525Z" fill="#E31059"/>
<path d="M31.9339 29.9612C31.9431 30.0126 31.9505 30.0647 31.9584 30.1191C30.143 27.3118 26.5189 25.78 22.698 24.1638C17.6954 22.0487 12.0346 19.6549 9.35156 13.9819C17.5611 14.6197 30.1638 20.5948 31.9339 29.9612Z" fill="#E31059"/>
<path d="M33.1437 11.3045C32.9139 11.8345 32.7197 12.4123 32.5389 13.0986C30.2928 13.6292 28.03 14.4293 25.8109 15.4771C25.2828 14.9439 24.6872 14.5028 24.0352 14.1634C26.5129 12.4258 28.3922 11.3536 33.1437 11.3045Z" fill="#E31059"/>
<path d="M22.0337 13.4787C21.584 13.3965 21.1607 13.3561 20.7433 13.3561C19.616 13.3561 18.477 13.6392 17.4446 14.1753C17.0826 14.0478 16.7204 13.924 16.3656 13.812C15.3614 13.4174 14.7383 12.8977 14.7383 12.4586C14.7383 11.6988 17.5053 10.219 22.576 10.219C24.1291 10.219 25.678 10.3796 26.999 10.6706C25.1843 11.3593 23.6659 12.3538 22.0337 13.4787Z" fill="#E31059"/>
<path d="M24.3105 16.217C23.9424 16.4155 23.5784 16.6311 23.2261 16.8377L23.1906 16.8584C22.0644 16.1955 20.8617 15.5865 19.6094 15.0394C21.2911 14.684 23.0171 15.1374 24.3105 16.217Z" fill="#E31059"/>
<path d="M33.6457 31.9568C33.6457 31.1291 33.5898 30.3895 33.4728 29.6812C32.4147 24.0585 28.1858 20.1549 24.7363 17.834C28.6766 15.6615 33.2957 14.2245 37.1987 13.9606C35.1982 18.516 36.4157 23.4611 37.3089 27.0901C37.7287 28.791 37.9671 31.2749 37.9683 31.2908C38.1117 34.9536 36.9842 38.1396 34.7093 40.5052C34.0378 41.2031 33.251 41.8146 32.3044 42.3764C30.2715 43.3549 28.1308 44.0007 25.9275 44.3003C30.5828 42.0615 33.6457 37.2254 33.6457 31.9568Z" fill="#E31059"/>
<path d="M26.6997 45.7758C25.6041 46.3578 24.3898 46.6629 23.143 46.6629C21.9225 46.6629 20.7295 46.3701 19.6494 45.8107C20.8117 45.9871 21.9267 46.0729 23.0388 46.0729C24.2525 46.0729 25.4804 45.9737 26.6997 45.7758ZM33.6459 31.9568C33.6459 31.1291 33.5901 30.3896 33.4731 29.6812C32.4149 24.0586 28.1861 20.155 24.7366 17.8341C28.6769 15.6615 33.296 14.2246 37.1989 13.9606C35.1984 18.5161 36.4159 23.4611 37.3092 27.0902C37.7289 28.7911 37.9673 31.275 37.9686 31.2909C38.112 34.9537 36.9845 38.1396 34.7095 40.5053C34.038 41.2032 33.2513 41.8146 32.3047 42.3765C30.2717 43.355 28.131 44.0008 25.9277 44.3004C30.5831 42.0616 33.6459 37.2255 33.6459 31.9568ZM9.03306 27.0902C9.15069 26.6087 9.27447 26.1044 9.39577 25.5824C16.9798 26.9867 22.4671 33.5694 22.4671 41.2895C22.4671 42.0714 22.3931 42.8905 22.2337 43.8635C21.5298 43.9897 20.8674 44.051 20.213 44.051C19.0673 44.051 17.9234 43.8917 16.8156 43.5817C16.2948 43.4242 15.7832 43.23 15.3071 43.0443C13.9022 42.4335 12.6658 41.58 11.6321 40.5053C9.3578 38.1396 8.23043 34.9536 8.37196 31.3001C8.3744 31.275 8.61398 28.7911 9.03306 27.0902ZM39.1749 13.5287L39.8618 12.3504H38.4984C37.2271 12.3504 35.8051 12.487 34.2653 12.7591C34.4902 12.0955 34.7738 11.4662 35.1133 10.8854L35.8014 9.70901H34.4449C32.6932 9.61897 31.1675 9.69254 29.7761 9.92844C28.0281 9.11783 25.4081 8.65527 22.5744 8.65527C17.9013 8.65527 13.17 9.96154 13.17 12.4589C13.17 12.6261 13.1945 12.7965 13.2423 12.9704C11.3374 12.5593 9.52138 12.3504 7.84442 12.3504H6.48055L7.168 13.5287C9.1703 16.9598 8.77205 20.8124 8.17467 23.8166C7.59567 23.7613 7.02586 23.735 6.47565 23.735C4.85873 23.735 3.23078 23.9667 1.63223 24.4261C1.59854 23.9715 1.56545 23.5035 1.56545 23.0359C1.56545 11.1967 11.1983 1.56448 23.0388 1.56448C34.878 1.56448 44.5098 11.1967 44.5098 23.0359C44.5098 23.4643 44.479 23.8931 44.4503 24.3091L44.4472 24.3514C42.383 23.8037 40.2742 23.6321 38.1731 23.8442C37.5727 20.8271 37.1708 16.9628 39.1749 13.5287ZM24.3107 16.2173C23.9426 16.4157 23.5786 16.6313 23.2263 16.8379L23.1908 16.8586C22.0646 16.1958 20.8619 15.5867 19.6096 15.0396C21.2913 14.6842 23.0173 15.1376 24.3107 16.2173ZM22.0322 13.4791C21.5825 13.3969 21.1591 13.3564 20.7417 13.3564C19.6144 13.3564 18.4754 13.6395 17.443 14.1757C17.081 14.0481 16.7188 13.9244 16.364 13.8124C15.3598 13.4178 14.7367 12.8981 14.7367 12.4589C14.7367 11.6991 17.5037 10.2194 22.5744 10.2194C24.1275 10.2194 25.6764 10.38 26.9974 10.671C25.1827 11.3597 23.6643 12.3541 22.0322 13.4791ZM33.1441 11.3045C32.9144 11.8345 32.7202 12.4123 32.5393 13.0986C30.2932 13.6292 28.0305 14.4293 25.8113 15.4771C25.2832 14.9439 24.6876 14.5029 24.0356 14.1634C26.5134 12.4258 28.3926 11.3536 33.1441 11.3045ZM31.9322 29.9614C31.9414 30.0128 31.9488 30.0649 31.9566 30.1193C30.1412 27.312 26.5172 25.7802 22.6963 24.164C17.6936 22.0488 12.0328 19.6551 9.34983 13.9821C17.5594 14.6199 30.1621 20.595 31.9322 29.9614ZM9.72664 24.0525C10.1727 21.7878 10.3148 19.8879 10.1672 18.1343C13.36 21.9154 17.9877 23.8722 22.0867 25.6056C27.8308 28.0356 32.3684 29.9551 31.4603 35.7385L31.4586 35.7978C30.2614 39.4282 27.4448 42.2711 23.8849 43.4536C23.9842 42.6687 24.0326 41.9586 24.0326 41.2895C24.0326 32.8373 18.0263 25.6136 9.72664 24.0525ZM6.47565 25.298C6.91128 25.298 7.35855 25.3195 7.83952 25.3617C7.73169 25.8219 7.62139 26.2722 7.51111 26.7164C7.04791 28.5986 6.78078 30.8245 6.77648 30.8589C6.67661 33.6712 7.32914 36.5473 8.58518 38.8945C4.88445 35.5191 2.48757 30.982 1.79399 26.0093C3.33738 25.5382 4.91081 25.298 6.47565 25.298ZM39.5639 30.8466C39.5616 30.8245 39.2951 28.5986 38.83 26.7164L38.8092 26.6283C38.7099 26.2288 38.6089 25.8133 38.5083 25.3851C40.4591 25.2147 42.4033 25.3942 44.2947 25.9292C43.6562 30.6365 41.4487 35.0118 38.0396 38.3511C39.121 36.1031 39.6596 33.477 39.5639 30.8466ZM23.0388 0.000198364C10.3357 0.000198364 0 10.3334 0 23.0359C0 32.5824 5.76797 41.0016 14.6895 44.4848C15.2073 44.7084 15.6968 44.8892 16.1863 45.0362C17.9399 47.0649 20.4729 48.2266 23.143 48.2266C25.8714 48.2266 28.4403 47.0226 30.1964 44.9235C39.6976 41.8085 46.0764 33.0187 46.0764 23.0359C46.0764 10.3334 35.7413 0.000198364 23.0388 0.000198364Z" fill="#1B1C40"/>
<path d="M70.7106 15.6676H60.1666C60.1145 15.6676 60.0618 15.6889 60.0251 15.7258C59.9889 15.7643 59.9676 15.8145 59.9687 15.8666L59.9847 17.0896L59.9767 18.2898C59.9767 21.1451 59.9153 23.499 59.7935 25.2826C59.6735 27.0271 59.3664 28.5183 58.8854 29.7149C58.4425 30.8044 57.8305 31.3146 56.9591 31.3146C56.7207 31.3146 56.4757 31.2718 56.2282 31.1927C55.9812 31.1118 55.7067 30.9783 55.3858 30.7852L55.1676 30.6524C55.1191 30.6229 55.0653 30.6132 55.0089 30.6303C54.9555 30.6463 54.9127 30.6824 54.8876 30.7332L54.5267 31.4771C54.4814 31.5672 54.5126 31.6738 54.5954 31.7282L54.7639 31.8398C55.1351 32.0898 55.5102 32.273 55.877 32.3851C56.2496 32.5009 56.6075 32.5591 56.9402 32.5591C58.331 32.5591 59.3573 31.8092 59.9908 30.3288C60.5661 28.9785 60.9239 27.3132 61.055 25.3806C61.1832 23.4838 61.2443 20.9019 61.2401 17.7066L61.2352 16.9102H68.1053L68.1158 32.0972C68.1158 32.2068 68.2023 32.2945 68.3125 32.2945H70.7332C70.7853 32.2945 70.8361 32.2749 70.873 32.2361C70.9109 32.1988 70.9299 32.1492 70.9299 32.0972L70.9073 15.8647C70.9073 15.7551 70.8203 15.6676 70.7106 15.6676Z" fill="#1B1C40"/>
<path d="M80.7986 29.1298L80.7912 29.5176C80.4678 29.8209 80.1822 30.0703 79.9427 30.2615C79.7319 30.4294 79.4831 30.5721 79.1964 30.6867C78.6965 30.8858 77.887 30.9416 77.3112 30.656C77.0519 30.5304 76.8565 30.3602 76.7082 30.1334C76.5636 29.919 76.4913 29.6801 76.4877 29.3976C76.4705 28.805 76.6267 28.3235 76.9655 27.9252C77.3245 27.5042 77.8577 27.1618 78.5531 26.9105C79.1504 26.6949 79.9016 26.5245 80.7949 26.4027L80.7986 29.1298ZM82.9952 22.2277C82.6514 21.5647 82.1257 21.0587 81.4285 20.7223C80.7594 20.3995 79.9121 20.2376 78.9133 20.2376C78.0434 20.2376 77.2395 20.3687 76.5269 20.6297C75.8148 20.8865 75.1336 21.2767 74.4982 21.7871L74.3377 21.9164C74.2604 21.9802 74.2402 22.0905 74.2935 22.1757L74.7489 22.9176C74.7794 22.9673 74.8303 23.0004 74.8903 23.0078C74.9344 23.0194 75.0055 22.9985 75.0502 22.9599L75.2555 22.7719C75.5588 22.5041 75.8884 22.2706 76.2407 22.0806C76.5942 21.8913 76.9809 21.7424 77.392 21.6383C77.7921 21.5335 78.2234 21.4802 78.6712 21.4802C79.4034 21.4802 79.9193 21.7057 80.2442 22.1677C80.5994 22.6738 80.7832 23.4273 80.7912 24.4034V25.1913C79.3092 25.3616 78.0758 25.6129 77.1219 25.9352C76.0183 26.3082 75.1893 26.8028 74.6599 27.4038C74.1061 28.0336 73.839 28.8179 73.8695 29.7412C73.9001 30.3018 74.084 30.8061 74.4166 31.2393C74.7354 31.6584 75.1549 31.9869 75.6647 32.219C76.1673 32.4451 76.718 32.5591 77.3019 32.5591C77.9042 32.5591 78.4606 32.4758 78.9556 32.3097C79.4359 32.1492 79.8765 31.9194 80.2655 31.6279C80.6135 31.3625 81.0105 31.0034 81.4482 30.5573L82.3366 32.1914C82.3708 32.2557 82.4369 32.2945 82.5105 32.2945H83.3125C83.3646 32.2945 83.4149 32.2749 83.4516 32.2361C83.4902 32.1988 83.5092 32.1492 83.5092 32.0972L83.5012 24.5847C83.494 23.6571 83.3236 22.8655 82.9952 22.2277Z" fill="#1B1C40"/>
<path d="M88.8597 26.8051H90.4417C91.0525 26.8051 91.566 26.8953 91.9697 27.0728C92.3581 27.2493 92.6382 27.481 92.8299 27.7849C93.0192 28.0839 93.1155 28.4533 93.1143 28.8859C93.1155 29.6003 92.9108 30.1278 92.4875 30.4991C92.0585 30.8796 91.3619 31.0732 90.4183 31.0732H88.8597V26.8051ZM92.428 24.7122C92.2693 24.9903 92.0359 25.2011 91.7056 25.3561C91.3655 25.5197 90.9268 25.6049 90.4012 25.6049H88.8536L88.8474 21.7209H90.2756C91.1353 21.7209 91.7595 21.895 92.1321 22.2374C92.5014 22.5775 92.6829 23.0444 92.689 23.659C92.6817 24.0646 92.594 24.4188 92.428 24.7122ZM93.8832 26.1728C93.8832 26.1709 93.8806 26.1709 93.8806 26.1709C93.8403 26.1532 93.7992 26.1368 93.7588 26.1208C94.0027 25.9873 94.219 25.8347 94.407 25.6668C95.0406 25.0884 95.3574 24.3844 95.3475 23.5763C95.3574 22.9426 95.1679 22.3797 94.7851 21.9091C94.418 21.4525 93.8844 21.0973 93.2007 20.8521C92.548 20.6181 91.7435 20.5004 90.8123 20.5004H86.3334C86.2813 20.5004 86.2318 20.5194 86.1949 20.558C86.1557 20.5949 86.1367 20.6451 86.1367 20.6971L86.1485 32.0971C86.1485 32.2068 86.2354 32.2944 86.345 32.2944H90.4048C91.5445 32.2944 92.5113 32.1859 93.2741 31.9734C94.086 31.7448 94.7195 31.382 95.1595 30.8895C95.6201 30.3797 95.8499 29.726 95.848 28.9496C95.848 28.3333 95.6722 27.7769 95.3205 27.291C94.9769 26.8242 94.4922 26.4473 93.8832 26.1728Z" fill="#1B1C40"/>
<path d="M103.432 25.562L107.757 20.8308C107.809 20.7726 107.822 20.6898 107.792 20.6181C107.759 20.5464 107.689 20.5004 107.61 20.5004H106.444C106.391 20.5004 106.336 20.5207 106.3 20.5618L101.472 25.7482H100.484V20.6971C100.484 20.5869 100.397 20.5004 100.287 20.5004H97.9584C97.9063 20.5004 97.8561 20.5194 97.8194 20.558C97.7809 20.5949 97.7617 20.6451 97.7617 20.6971L97.7735 32.0971C97.7735 32.2068 97.8597 32.2944 97.9702 32.2944H100.287C100.397 32.2944 100.484 32.2068 100.484 32.0971V26.9792L101.318 26.9883L105.775 32.2245C105.812 32.2686 105.867 32.2944 105.925 32.2944H108.773C108.851 32.2944 108.92 32.2496 108.953 32.1798C108.986 32.1087 108.974 32.0278 108.924 31.9679L103.432 25.562Z" fill="#1B1C40"/>
<path d="M116.563 29.1311L116.558 29.5158C116.244 29.8135 115.949 30.0703 115.71 30.2615C115.499 30.4319 115.248 30.5721 114.962 30.6867C114.461 30.8858 113.656 30.9416 113.076 30.656C112.819 30.5304 112.622 30.3602 112.473 30.1334C112.328 29.919 112.257 29.6801 112.253 29.3976C112.236 28.8062 112.393 28.3253 112.733 27.9252C113.092 27.5042 113.625 27.1618 114.32 26.9105C114.918 26.6949 115.669 26.5228 116.56 26.4027L116.563 29.1311ZM118.761 22.2277C118.417 21.563 117.889 21.0562 117.194 20.7223C116.527 20.3995 115.68 20.2376 114.681 20.2376C113.809 20.2376 113.005 20.3687 112.294 20.6297C111.582 20.8865 110.898 21.2767 110.261 21.7884L110.102 21.9183C110.028 21.9802 110.007 22.0905 110.06 22.1732L110.514 22.9152C110.545 22.966 110.595 23.0004 110.653 23.0078C110.711 23.0194 110.771 22.9985 110.813 22.9599L111.023 22.7719C111.327 22.4997 111.66 22.2682 112.007 22.0806C112.361 21.8913 112.748 21.7424 113.159 21.6383C113.557 21.5335 113.988 21.4802 114.439 21.4802C115.171 21.4802 115.687 21.7057 116.011 22.1677C116.367 22.6738 116.551 23.4273 116.558 24.4034V25.1913C115.076 25.3616 113.842 25.6129 112.886 25.9352C111.786 26.3082 110.957 26.8028 110.425 27.4038C109.873 28.0336 109.606 28.8179 109.635 29.7412C109.667 30.3018 109.851 30.8061 110.181 31.2393C110.501 31.6584 110.922 31.9869 111.432 32.219C111.932 32.4451 112.483 32.5591 113.069 32.5591C113.671 32.5591 114.228 32.4758 114.722 32.3097C115.199 32.1492 115.64 31.9213 116.033 31.6279C116.382 31.3606 116.78 31.0015 117.215 30.5573L118.104 32.1914C118.138 32.2557 118.204 32.2945 118.278 32.2945H119.08C119.132 32.2945 119.182 32.2749 119.219 32.2361C119.257 32.1988 119.276 32.1492 119.276 32.0972L119.268 24.5847C119.261 23.659 119.091 22.8667 118.761 22.2277Z" fill="#1B1C40"/>
<path d="M137.317 17.5632V17.5607C136.753 16.9529 136.001 16.4792 135.087 16.1546C134.188 15.8299 133.135 15.6675 131.957 15.6675H127.084C127.032 15.6675 126.982 15.6871 126.945 15.7257C126.906 15.7624 126.887 15.8126 126.887 15.8647L126.91 32.0971C126.91 32.2068 126.999 32.2944 127.107 32.2944H129.528C129.58 32.2944 129.63 32.2748 129.667 32.2361C129.706 32.1988 129.725 32.1492 129.725 32.0971L129.716 16.9101H131.509C132.23 16.9101 132.883 17.032 133.449 17.2715C134.007 17.5074 134.466 17.8438 134.815 18.2721C135.164 18.6973 135.396 19.2089 135.506 19.7927C135.634 20.4576 135.604 21.1744 135.425 21.9201C135.251 22.6295 134.852 23.2515 134.235 23.7728C133.626 24.2832 132.742 24.5419 131.605 24.5419H130.233C130.16 24.5419 130.095 24.5811 130.059 24.6429C130.024 24.7067 130.026 24.7839 130.064 24.844L130.588 25.6839C130.625 25.7421 130.689 25.7765 130.756 25.7765H131.837C133.559 25.7765 134.957 25.4657 135.995 24.8501C137.051 24.2269 137.769 23.4391 138.13 22.5052C138.49 21.5917 138.582 20.6592 138.411 19.7316C138.254 18.9117 137.887 18.1814 137.317 17.5632Z" fill="#1B1C40"/>
<path d="M144.601 31.3361C144.139 31.3361 143.747 31.2007 143.401 30.9201C143.026 30.6155 142.729 30.2284 142.497 29.7339C142.251 29.2199 142.068 28.6403 141.95 28.0146C141.766 27.0404 141.743 26.016 141.884 24.9695C142.017 23.947 142.323 23.0812 142.786 22.4C143.211 21.781 143.745 21.4802 144.421 21.4802C144.875 21.4802 145.279 21.6187 145.617 21.8913C145.99 22.1946 146.297 22.5941 146.533 23.0856C146.784 23.6014 146.968 24.1749 147.081 24.7894C147.265 25.752 147.286 26.7739 147.147 27.8309C147.014 28.8608 146.709 29.7303 146.245 30.4123C145.824 31.0329 145.285 31.3361 144.601 31.3361ZM148.906 22.5929C148.408 21.8662 147.769 21.2885 147.011 20.8749C146.25 20.46 145.393 20.2494 144.468 20.2494C143.336 20.2494 142.3 20.6046 141.388 21.3062C140.485 21.9973 139.814 22.9378 139.396 24.1013C138.978 25.2612 138.891 26.5093 139.134 27.8137C139.303 28.6947 139.632 29.5017 140.113 30.2112C140.604 30.9317 141.235 31.5077 141.988 31.9237C142.754 32.3447 143.621 32.5591 144.565 32.5591C145.69 32.5591 146.723 32.2032 147.633 31.4984C148.535 30.8061 149.209 29.8694 149.632 28.7137C150.053 27.5662 150.142 26.3145 149.896 24.9904C149.728 24.1129 149.396 23.3073 148.906 22.5929Z" fill="#1B1C40"/>
<path d="M159.426 27.093C159.052 26.606 158.514 26.2249 157.835 25.9639C157.794 25.9486 157.754 25.9333 157.716 25.9179C158.285 25.6282 158.726 25.2624 159.029 24.8322C159.363 24.3549 159.532 23.8347 159.529 23.2864C159.529 22.6828 159.344 22.145 158.979 21.6842C158.626 21.2338 158.116 20.8845 157.47 20.645C156.287 20.2044 154.839 20.1793 153.391 20.5617C152.732 20.7376 152.101 20.9752 151.515 21.2705L151.304 21.3772C151.256 21.4004 151.22 21.4409 151.206 21.4912C151.189 21.5433 151.192 21.5977 151.217 21.6437L151.576 22.3373C151.625 22.4341 151.742 22.4745 151.84 22.4243L152.04 22.3263C152.616 22.0512 153.163 21.8404 153.665 21.7019C154.715 21.4115 155.568 21.4177 156.073 21.7056C156.318 21.8452 156.495 22.0322 156.624 22.3012C156.764 22.5751 156.83 22.9187 156.827 23.325C156.832 23.7673 156.729 24.1497 156.519 24.4647C156.305 24.7893 155.993 25.0387 155.566 25.2304C155.114 25.4326 154.571 25.5502 153.961 25.5822H153.737C153.63 25.5822 153.542 25.6643 153.539 25.7709L153.52 26.3486L153.567 26.5883C153.585 26.6807 153.665 26.7481 153.761 26.7481L154.001 26.7506C154.741 26.7567 155.375 26.8725 155.885 27.0968C156.37 27.3051 156.735 27.587 156.973 27.9331C157.205 28.2732 157.325 28.675 157.325 29.1254C157.325 29.5543 157.234 29.9231 157.051 30.2515C156.869 30.5745 156.612 30.8239 156.26 31.0126C155.58 31.3704 154.493 31.3973 153.273 31.0921C152.718 30.9531 152.15 30.7387 151.581 30.4581L151.377 30.3582C151.287 30.3135 151.166 30.3502 151.115 30.4451L150.747 31.1498C150.697 31.2472 150.733 31.3666 150.833 31.417L151.04 31.5253C151.567 31.7937 152.178 32.0235 152.859 32.2048C153.541 32.3807 154.235 32.4702 154.92 32.4702C155.87 32.4702 156.725 32.3359 157.465 32.0737C158.241 31.7979 158.859 31.3919 159.3 30.8661C159.769 30.3171 160.006 29.6665 160 28.9318C160.008 28.2131 159.815 27.5931 159.426 27.093Z" fill="#1B1C40"/>
</g>
<defs>
<clipPath id="clip0_3_71592">
<rect width="160" height="48" fill="white"/>
</clipPath>
</defs>
</svg>
