<svg width="24" height="24" viewBox="0 0 24 24" fill="none" xmlns="http://www.w3.org/2000/svg">
<path d="M7.5 3H5.25C4.007 3 3 4.007 3 5.25V7.5" stroke="#B0B2B9" stroke-width="1.5" stroke-linecap="round" stroke-linejoin="round"/>
<path d="M3 16.5V18.75C3 19.993 4.007 21 5.25 21H7.5" stroke="#B0B2B9" stroke-width="1.5" stroke-linecap="round" stroke-linejoin="round"/>
<path d="M16.5 21H18.75C19.993 21 21 19.993 21 18.75V16.5" stroke="#B0B2B9" stroke-width="1.5" stroke-linecap="round" stroke-linejoin="round"/>
<path d="M21 7.5V5.25C21 4.007 19.993 3 18.75 3H16.5" stroke="#B0B2B9" stroke-width="1.5" stroke-linecap="round" stroke-linejoin="round"/>
<path d="M13.275 10.763C13.958 11.446 13.958 12.554 13.275 13.238C12.592 13.921 11.484 13.921 10.8 13.238C10.117 12.555 10.117 11.447 10.8 10.763C11.484 10.079 12.592 10.079 13.275 10.763" stroke="#B0B2B9" stroke-width="1.5" stroke-linecap="round" stroke-linejoin="round"/>
<path fill-rule="evenodd" clip-rule="evenodd" d="M15.125 9L14.213 7.484C14.032 7.184 13.707 7 13.356 7H10.617C10.262 7 9.933 7.189 9.753 7.496L8.875 9H7.5C6.81 9 6.25 9.56 6.25 10.25V14.75C6.25 15.44 6.81 16 7.5 16H16.5C17.19 16 17.75 15.44 17.75 14.75V10.25C17.75 9.56 17.19 9 16.501 9H15.125V9Z" stroke="#B0B2B9" stroke-width="1.5" stroke-linecap="round" stroke-linejoin="round"/>
</svg>
