<svg width="48" height="48" viewBox="0 0 48 48" fill="none" xmlns="http://www.w3.org/2000/svg">
<path d="M40.8185 12.5381C40.6344 12.354 40.4359 12.1897 40.2244 12.0459C40.3049 10.9234 39.8873 9.79464 39.0463 8.95367C38.2053 8.11271 37.0767 7.69518 35.954 7.77556C35.8103 7.56402 35.6459 7.36556 35.4618 7.18144C34.0961 5.81584 31.9598 5.61056 30.4578 6.68859C30.1072 6.91097 30.0069 7.28869 29.9639 7.45079C29.9387 7.54538 29.0532 11.1648 28.7386 12.4746C27.8141 12.2002 26.8448 12.0577 25.8535 12.0577C23.1587 12.0577 20.6252 13.1072 18.7197 15.0127L15.0127 18.7197C13.1072 20.6252 12.0578 23.1587 12.0578 25.8535C12.0578 26.8448 12.2003 27.8141 12.4747 28.7386C11.165 29.0532 7.54549 29.9387 7.4509 29.9638C7.28872 30.0069 6.91093 30.1073 6.68856 30.4579C5.61053 31.9598 5.81588 34.0961 7.18155 35.4618C7.36566 35.6459 7.56412 35.8103 7.77566 35.954C7.69521 37.0766 8.11281 38.2053 8.95377 39.0463C9.79473 39.8872 10.9235 40.3048 12.046 40.2244C12.1898 40.4359 12.3541 40.6344 12.5382 40.8185C13.3183 41.5985 14.3497 42 15.3708 42C16.1373 42 16.8981 41.7737 17.5422 41.3114C17.8927 41.089 17.9931 40.7113 18.0361 40.5492C18.0613 40.4546 18.9469 36.8351 19.2614 35.5253C20.1859 35.7997 21.1552 35.9422 22.1465 35.9422C24.8413 35.9422 27.3748 34.8928 29.2803 32.9872L32.9873 29.2802C34.8927 27.3747 35.9422 24.8412 35.9422 22.1465C35.9422 21.1551 35.7997 20.1858 35.5253 19.2614C36.835 18.9468 40.4545 18.0612 40.5491 18.0361C40.7113 17.993 41.0889 17.8927 41.3113 17.5421C42.3895 16.0402 42.1842 13.9038 40.8185 12.5381ZM22.3024 14.9972C23.3468 14.4772 24.5005 14.1922 25.6977 14.1694V33.0028C24.6533 33.5228 23.4996 33.8078 22.3024 33.8306V14.9972ZM16.5046 20.2115L20.1926 16.5235V33.5927C18.8088 33.246 17.5395 32.5304 16.5046 31.4955C14.9976 29.9884 14.1676 27.9848 14.1676 25.8535C14.1676 23.7222 14.9976 21.7185 16.5046 20.2115ZM16.0662 39.7416C15.4198 40.0446 14.5937 39.8902 14.0301 39.3267C13.8379 39.1344 13.6907 38.9108 13.5926 38.6622L13.2311 37.7452L12.2917 38.0438C11.6663 38.2427 10.9418 38.0505 10.4457 37.5544C9.94966 37.0583 9.75753 36.3337 9.95635 35.7084L10.2549 34.769L9.33797 34.4075C9.08929 34.3094 8.86572 34.1622 8.67352 33.97C8.10993 33.4064 7.95563 32.5803 8.25853 31.9339C9.04569 31.735 11.0082 31.2602 13.2994 30.7102C13.7541 31.5358 14.3278 32.3022 15.0128 32.9873C15.6978 33.6723 16.4643 34.2459 17.2898 34.7007C16.7399 36.992 16.2651 38.9544 16.0662 39.7416ZM31.4956 27.7885L27.8076 31.4765V14.4072C29.1915 14.754 30.4606 15.4696 31.4956 16.5045C33.0026 18.0115 33.8325 20.0152 33.8325 22.1465C33.8325 24.2778 33.0025 26.2814 31.4956 27.7885ZM39.7416 16.0661C38.9544 16.265 36.9921 16.7397 34.7008 17.2898C34.246 16.4641 33.6723 15.6976 32.9873 15.0127C32.3023 14.3277 31.5359 13.754 30.7103 13.2992C31.2603 11.0081 31.735 9.04552 31.934 8.25835C32.5803 7.95546 33.4065 8.10975 33.9701 8.67328C34.1623 8.86555 34.3095 9.08912 34.4076 9.3378L34.7691 10.2547L35.7085 9.95618C36.3338 9.75744 37.0584 9.9495 37.5545 10.4456C38.0505 10.9417 38.2427 11.6662 38.0439 12.2916L37.7453 13.2309L38.6622 13.5925C38.9109 13.6906 39.1345 13.8377 39.3267 14.03C39.8902 14.5936 40.0445 15.4196 39.7416 16.0661Z" fill="#0093A2"/>
</svg>
