<svg width="24" height="24" viewBox="0 0 24 24" fill="none" xmlns="http://www.w3.org/2000/svg">
<path d="M4 7H18C19.105 7 20 7.895 20 9V20C20 21.105 19.105 22 18 22H6C4.895 22 4 21.105 4 20V7.051C4 6.168 4.579 5.39 5.424 5.136L15.712 2.044C16.354 1.85 17 2.331 17 3.001V7" stroke="#B0B2B9" stroke-width="1.5" stroke-linecap="round" stroke-linejoin="round"/>
<path fill-rule="evenodd" clip-rule="evenodd" d="M13.725 11C15.206 11 16.2 12.304 16.2 13.518C16.2 15.982 12.075 18 12 18C11.925 18 7.8 15.982 7.8 13.518C7.8 12.304 8.794 11 10.275 11C11.122 11 11.678 11.396 12 11.748C12.322 11.396 12.878 11 13.725 11Z" stroke="#B0B2B9" stroke-width="1.5" stroke-linecap="round" stroke-linejoin="round"/>
</svg>
