<svg width="24" height="24" viewBox="0 0 24 24" fill="none" xmlns="http://www.w3.org/2000/svg">
<path fill-rule="evenodd" clip-rule="evenodd" d="M19 22H5C3.895 22 3 21.105 3 20V4C3 2.895 3.895 2 5 2H19C20.105 2 21 2.895 21 4V20C21 21.105 20.105 22 19 22Z" stroke="#B0B2B9" stroke-width="1.5" stroke-linecap="round" stroke-linejoin="round"/>
<path d="M16 15H8" stroke="#B0B2B9" stroke-width="1.5" stroke-linecap="round" stroke-linejoin="round"/>
<path d="M14 18H10" stroke="#B0B2B9" stroke-width="1.5" stroke-linecap="round" stroke-linejoin="round"/>
<path fill-rule="evenodd" clip-rule="evenodd" d="M13.232 6C14.29 6 15 6.931 15 7.798C15 9.559 12.054 11 12 11C11.946 11 9 9.559 9 7.798C9 6.931 9.71 6 10.768 6C11.373 6 11.77 6.283 12 6.535C12.23 6.283 12.627 6 13.232 6Z" stroke="#B0B2B9" stroke-width="1.5" stroke-linecap="round" stroke-linejoin="round"/>
</svg>
