<svg width="24" height="24" viewBox="0 0 24 24" fill="none" xmlns="http://www.w3.org/2000/svg">
<path d="M4 3H18C19.105 3 20 3.895 20 5V18" stroke="#B0B2B9" stroke-width="1.5" stroke-linecap="round" stroke-linejoin="round"/>
<path d="M8 21V21C9.105 21 10 20.105 10 19V18" stroke="#B0B2B9" stroke-width="1.5" stroke-linecap="round" stroke-linejoin="round"/>
<path d="M13.986 7C14.832 7 15.4 7.745 15.4 8.439C15.4 9.847 13.043 11 13 11" stroke="#B0B2B9" stroke-width="1.5" stroke-linecap="round" stroke-linejoin="round"/>
<path d="M12.014 7C11.168 7 10.6 7.745 10.6 8.439C10.6 9.847 12.957 11 13 11" stroke="#B0B2B9" stroke-width="1.5" stroke-linecap="round" stroke-linejoin="round"/>
<path d="M13 7.428C13.184 7.226 13.502 7 13.986 7" stroke="#B0B2B9" stroke-width="1.5" stroke-linecap="round" stroke-linejoin="round"/>
<path d="M13 7.428C12.816 7.226 12.498 7 12.014 7" stroke="#B0B2B9" stroke-width="1.5" stroke-linecap="round" stroke-linejoin="round"/>
<path d="M10 14H17" stroke="#B0B2B9" stroke-width="1.5" stroke-linecap="round" stroke-linejoin="round"/>
<path d="M10 18H22V18.895C22 20.058 21.058 21 19.895 21V21H8C6.895 21 6 20.105 6 19V6V5C6 3.895 5.105 3 4 3V3C2.895 3 2 3.895 2 5V6" stroke="#B0B2B9" stroke-width="1.5" stroke-linecap="round" stroke-linejoin="round"/>
<path d="M2 6H6" stroke="#B0B2B9" stroke-width="1.5" stroke-linecap="round" stroke-linejoin="round"/>
</svg>
