<svg width="24" height="24" viewBox="0 0 24 24" fill="none" xmlns="http://www.w3.org/2000/svg">
<path fill-rule="evenodd" clip-rule="evenodd" d="M19.862 20H4.138C2.957 20 2 19.043 2 17.862V6.138C2 4.957 2.957 4 4.138 4H19.862C21.043 4 22 4.957 22 6.138V17.862C22 19.043 21.043 20 19.862 20Z" stroke="#B0B2B9" stroke-width="1.5" stroke-linecap="round" stroke-linejoin="round"/>
<path fill-rule="evenodd" clip-rule="evenodd" d="M13.682 9C13.265 9.001 12.871 9.144 12.557 9.392C12.238 9.644 11.762 9.644 11.443 9.392C11.129 9.144 10.734 9 10.315 9C9.31 9 8.495 10.002 8.495 11.009C8.495 13.21 11.533 15 12 15C12.467 15 15.505 13.21 15.505 11.009C15.505 10.002 14.689 9 13.682 9V9Z" stroke="#B0B2B9" stroke-width="1.5" stroke-linecap="round" stroke-linejoin="round"/>
<path d="M21.64 19.06L14.78 12.91" stroke="#B0B2B9" stroke-width="1.5" stroke-linecap="round" stroke-linejoin="round"/>
<path d="M9.25 12.96L2.46 19.18" stroke="#B0B2B9" stroke-width="1.5" stroke-linecap="round" stroke-linejoin="round"/>
<path d="M21.8 5.25L15.37 10.28" stroke="#B0B2B9" stroke-width="1.5" stroke-linecap="round" stroke-linejoin="round"/>
<path d="M8.7 10.14L2.23 5.19" stroke="#B0B2B9" stroke-width="1.5" stroke-linecap="round" stroke-linejoin="round"/>
</svg>
