<svg width="24" height="24" viewBox="0 0 24 24" fill="none" xmlns="http://www.w3.org/2000/svg">
<path d="M1.99583 14.0008L4.54744 9.74816C4.8411 9.25871 5.26825 8.86315 5.77878 8.60789L6.36421 8.31517C6.78095 8.10681 7.24048 7.99832 7.70641 7.99832H22.0042" stroke="#7D818E" stroke-width="1.5" stroke-linecap="round" stroke-linejoin="round"/>
<path d="M3.99666 21.0037L9.76093 18.9209C10.5655 18.6302 11.2557 18.0893 11.7303 17.3776L14.7244 12.8877C15.1599 12.2347 15.0738 11.3651 14.5188 10.8101V10.8101C13.8759 10.1672 12.8337 10.1671 12.1907 10.8098L9.99916 13.0004H7.99832" stroke="#7D818E" stroke-width="1.5" stroke-linecap="round" stroke-linejoin="round"/>
<path d="M13.9821 14.0008H19.6874C20.99 13.9772 22.027 12.9024 22.0042 11.5998V7.39809C22.027 6.09547 20.99 5.02075 19.6874 4.99709H12.3159C11.0133 5.02075 9.97631 6.09547 9.99917 7.39809V7.39809V13.0004" stroke="#7D818E" stroke-width="1.5" stroke-linecap="round" stroke-linejoin="round"/>
</svg>
