<svg width="24" height="24" viewBox="0 0 24 24" fill="none" xmlns="http://www.w3.org/2000/svg">
<path fill-rule="evenodd" clip-rule="evenodd" d="M10.438 6.97513C8.88108 5.38284 6.3191 5.38284 4.76219 6.97513C3.25399 8.51761 3.25399 10.9823 4.76219 12.5248L11.8614 19.7853C11.9375 19.8631 12.0627 19.8631 12.1388 19.7853L19.238 12.5248C20.7462 10.9823 20.7462 8.51761 19.238 6.97513C17.6811 5.38284 15.1191 5.38284 13.5622 6.97513L12.5363 8.0243C12.3952 8.16861 12.2019 8.24996 12.0001 8.24996C11.7983 8.24996 11.6049 8.16861 11.4638 8.0243L10.438 6.97513ZM3.68968 5.92645C5.83498 3.7324 9.3652 3.7324 11.5105 5.92645L12.0001 6.42718L12.4897 5.92645C14.635 3.7324 18.1652 3.7324 20.3105 5.92645C22.3887 8.05187 22.3887 11.448 20.3105 13.5735L13.2113 20.834C12.5468 21.5136 11.4534 21.5136 10.7889 20.834L3.68968 13.5735C1.61149 11.448 1.6115 8.05187 3.68968 5.92645Z" fill="#B0B2B9"/>
</svg>
