<svg width="18" height="16" viewBox="0 0 18 16" fill="none" xmlns="http://www.w3.org/2000/svg">
<path d="M8.99999 3.48448C5.37633 -0.89417 1.55034 2.21705 1.5 5.57087C1.5 10.5638 7.56608 14.6619 8.99999 14.6619C10.4339 14.6619 16.5 10.5638 16.5 5.57087C16.4497 2.21705 12.6236 -0.89417 8.99999 3.48448Z" fill="#E2195B"/>
<path d="M1.5 5.57087L0.75 5.55961V5.57087H1.5ZM8.99999 3.48448L8.42219 3.96265C8.56467 4.13482 8.77651 4.23448 8.99999 4.23448C9.22347 4.23448 9.43531 4.13482 9.57779 3.96265L8.99999 3.48448ZM16.5 5.57087H17.2501L17.2499 5.55961L16.5 5.57087ZM2.24992 5.58213C2.27132 4.15593 3.1029 2.82359 4.22282 2.30965C4.76666 2.06007 5.39521 1.99253 6.08269 2.20744C6.77939 2.42523 7.58326 2.94893 8.42219 3.96265L9.57779 3.00631C8.60489 1.8307 7.57164 1.10131 6.53024 0.775765C5.47962 0.44734 4.46909 0.54622 3.59719 0.946348C1.88561 1.73181 0.779018 3.63199 0.750084 5.55961L2.24992 5.58213ZM8.99999 13.9119C8.96622 13.9119 8.82196 13.8912 8.54571 13.7802C8.28807 13.6767 7.96942 13.5167 7.60907 13.3005C6.88892 12.8684 6.04207 12.2356 5.23509 11.451C3.59902 9.86038 2.25 7.77038 2.25 5.57087H0.75C0.75 8.36427 2.43402 10.8198 4.18947 12.5265C5.07824 13.3906 6.01678 14.0944 6.8373 14.5867C7.24729 14.8327 7.6378 15.0319 7.98636 15.172C8.3163 15.3046 8.67528 15.4119 8.99999 15.4119V13.9119ZM17.2499 5.55961C17.221 3.63198 16.1144 1.73181 14.4028 0.946348C13.5309 0.54622 12.5204 0.44734 11.4697 0.775764C10.4283 1.10131 9.39509 1.8307 8.42219 3.00631L9.57779 3.96265C10.4167 2.94893 11.2206 2.42523 11.9173 2.20744C12.6048 1.99253 13.2333 2.06007 13.7772 2.30965C14.8971 2.82359 15.7287 4.15593 15.7501 5.58213L17.2499 5.55961ZM8.99999 15.4119C9.3247 15.4119 9.68367 15.3046 10.0136 15.172C10.3622 15.0319 10.7527 14.8327 11.1627 14.5867C11.9832 14.0944 12.9217 13.3906 13.8105 12.5265C15.566 10.8198 17.25 8.36427 17.25 5.57087H15.75C15.75 7.77038 14.401 9.86038 12.7649 11.451C11.9579 12.2356 11.1111 12.8684 10.3909 13.3005C10.0306 13.5167 9.71191 13.6767 9.45427 13.7802C9.17801 13.8912 9.03376 13.9119 8.99999 13.9119V15.4119Z" fill="#E2195B"/>
</svg>
