<svg width="24" height="24" viewBox="0 0 24 24" fill="none" xmlns="http://www.w3.org/2000/svg">
<path fill-rule="evenodd" clip-rule="evenodd" d="M3 10.7143V13.2857C3 17.5462 6.4538 21 10.7143 21H13.2857C17.5462 21 21 17.5462 21 13.2857V10.7143C21 6.4538 17.5462 3 13.2857 3H10.7143C6.4538 3 3 6.4538 3 10.7143Z" stroke="#505567" stroke-width="1.5" stroke-linecap="round" stroke-linejoin="round"/>
<path d="M12 12V17.1429" stroke="#505567" stroke-width="1.5" stroke-linecap="round"/>
<path d="M12.0004 8.78571C11.646 8.78571 11.3576 8.49733 11.3576 8.14286C11.3576 7.78839 11.646 7.5 12.0004 7.5C12.3549 7.5 12.6433 7.78839 12.6433 8.14286C12.6433 8.49733 12.3549 8.78571 12.0004 8.78571Z" fill="#505567"/>
<path d="M12.0004 6.85715C12.7105 6.85715 13.2861 7.43279 13.2861 8.14286C13.2861 8.85294 12.7105 9.42858 12.0004 9.42858C11.2903 9.42858 10.7147 8.85294 10.7147 8.14286C10.7147 7.43279 11.2903 6.85715 12.0004 6.85715Z" fill="#505567"/>
</svg>
