<svg width="24" height="24" viewBox="0 0 24 24" fill="none" xmlns="http://www.w3.org/2000/svg">
<path d="M4.34486 16.8799C4.50551 18.3199 5.6569 19.4707 7.09619 19.637C8.68352 19.8205 10.3231 20 12.0004 20C13.6777 20 15.3173 19.8205 16.9047 19.637C18.3439 19.4707 19.4953 18.3199 19.656 16.8799C19.8322 15.3002 20.001 13.6685 20.001 11.9994C20.001 10.3304 19.8322 8.69872 19.656 7.11897C19.4953 5.67903 18.3439 4.5282 16.9047 4.36185C15.3173 4.17839 13.6777 3.99889 12.0004 3.99889C10.3231 3.99889 8.68352 4.17839 7.09619 4.36185C5.6569 4.5282 4.50551 5.67903 4.34486 7.11897C4.16861 8.69872 3.99986 10.3304 3.99986 11.9994C3.99986 13.6685 4.16861 15.3002 4.34486 16.8799Z" fill="#F2F3F5"/>
<path d="M16.9047 19.637L16.8185 18.892L16.9047 19.637ZM7.09619 4.36185L7.01008 3.61681L7.09619 4.36185ZM12.0004 19.25C10.3716 19.25 8.77157 19.0757 7.1823 18.892L7.01008 20.3821C8.59548 20.5653 10.2747 20.75 12.0004 20.75V19.25ZM16.8185 18.892C15.2293 19.0757 13.6292 19.25 12.0004 19.25V20.75C13.7262 20.75 15.4054 20.5653 16.9908 20.3821L16.8185 18.892ZM20.4014 16.9631C20.5776 15.3836 20.751 13.7147 20.751 11.9994H19.251C19.251 13.6223 19.0869 15.2168 18.9106 16.7968L20.4014 16.9631ZM20.751 11.9994C20.751 10.2842 20.5776 8.6153 20.4014 7.03581L18.9106 7.20213C19.0869 8.78213 19.251 10.3765 19.251 11.9994H20.751ZM12.0004 4.74889C13.6292 4.74889 15.2293 4.92321 16.8185 5.10689L16.9908 3.61681C15.4054 3.43358 13.7262 3.24889 12.0004 3.24889V4.74889ZM7.1823 5.10689C8.77157 4.92321 10.3716 4.74889 12.0004 4.74889V3.24889C10.2747 3.24889 8.59548 3.43358 7.01008 3.61681L7.1823 5.10689ZM3.59949 7.03581C3.42327 8.6153 3.24986 10.2842 3.24986 11.9994H4.74986C4.74986 10.3765 4.91396 8.78213 5.09024 7.20213L3.59949 7.03581ZM3.24986 11.9994C3.24986 13.7147 3.42327 15.3836 3.59949 16.9631L5.09024 16.7968C4.91396 15.2168 4.74986 13.6223 4.74986 11.9994H3.24986ZM20.4014 7.03581C20.2018 5.24695 18.7755 3.82309 16.9908 3.61681L16.8185 5.10689C17.9124 5.23332 18.7889 6.11112 18.9106 7.20213L20.4014 7.03581ZM16.9908 20.3821C18.7755 20.1758 20.2018 18.7519 20.4014 16.9631L18.9106 16.7968C18.7889 17.8878 17.9124 18.7656 16.8185 18.892L16.9908 20.3821ZM7.01008 3.61681C5.22535 3.82309 3.79907 5.24695 3.59949 7.03581L5.09024 7.20213C5.21196 6.11112 6.08845 5.23332 7.1823 5.10689L7.01008 3.61681ZM7.1823 18.892C6.08845 18.7656 5.21196 17.8878 5.09024 16.7968L3.59949 16.9631C3.79907 18.7519 5.22535 20.1758 7.01008 20.3821L7.1823 18.892Z" fill="#505567"/>
<path d="M15.2006 12.7499C15.6149 12.7499 15.9506 12.4141 15.9506 11.9999C15.9506 11.5856 15.6149 11.2499 15.2006 11.2499L15.2006 12.7499ZM8.80019 11.2499C8.38598 11.2499 8.05019 11.5856 8.05019 11.9999C8.05019 12.4141 8.38598 12.7499 8.80019 12.7499L8.80019 11.2499ZM15.2006 11.2499L8.80019 11.2499L8.80019 12.7499L15.2006 12.7499L15.2006 11.2499Z" fill="#505567"/>
</svg>
