<svg width="24" height="24" viewBox="0 0 24 24" fill="none" xmlns="http://www.w3.org/2000/svg">
<path d="M2.4424 13.5269C2.16539 13.8348 2.19046 14.309 2.49841 14.586C2.80637 14.8631 3.28058 14.838 3.5576 14.53L2.4424 13.5269ZM20.4424 14.53C20.7194 14.838 21.1936 14.8631 21.5016 14.586C21.8095 14.309 21.8346 13.8348 21.5576 13.5269L20.4424 14.53ZM11.2565 4.84992L11.8141 5.3515L11.2565 4.84992ZM12.7435 4.84992L12.1859 5.3515L12.7435 4.84992ZM3.5576 14.53L11.8141 5.3515L10.6989 4.34833L2.4424 13.5269L3.5576 14.53ZM12.1859 5.3515L20.4424 14.53L21.5576 13.5269L13.3011 4.34833L12.1859 5.3515ZM11.8141 5.3515C11.9135 5.2411 12.0865 5.2411 12.1859 5.3515L13.3011 4.34833C12.6058 3.57549 11.3942 3.57549 10.6989 4.34833L11.8141 5.3515Z" fill="#353949"/>
<path d="M5.76907 10.9567L11.2549 4.83168C11.6524 4.38792 12.3473 4.38792 12.7447 4.83168L18.2306 10.9567L18.5168 12.9136C18.786 14.7536 18.7728 16.6239 18.4778 18.46C18.3354 19.3463 17.5705 19.9981 16.6727 19.9981H7.32696C6.42923 19.9981 5.66434 19.3463 5.52191 18.46C5.22688 16.6239 5.2137 14.7536 5.48284 12.9136L5.76907 10.9567Z" fill="#E2E4EB"/>
<path d="M5.76907 10.9567L5.2104 10.4563C5.11209 10.566 5.0483 10.7023 5.02697 10.8481L5.76907 10.9567ZM18.2306 10.9567L18.9727 10.8481C18.9514 10.7023 18.8876 10.566 18.7893 10.4563L18.2306 10.9567ZM18.5168 12.9136L17.7747 13.0221L18.5168 12.9136ZM12.7447 4.83168L12.1861 5.33206L12.7447 4.83168ZM16.6727 19.2481H7.32696V20.7481H16.6727V19.2481ZM6.32775 11.457L11.8136 5.33206L10.6963 4.3313L5.2104 10.4563L6.32775 11.457ZM12.1861 5.33206L17.6719 11.457L18.7893 10.4563L13.3034 4.3313L12.1861 5.33206ZM17.4885 11.0652L17.7747 13.0221L19.259 12.805L18.9727 10.8481L17.4885 11.0652ZM6.22494 13.0221L6.51118 11.0652L5.02697 10.8481L4.74074 12.805L6.22494 13.0221ZM6.26241 18.341C5.97948 16.5803 5.96685 14.7867 6.22494 13.0221L4.74074 12.805C4.46056 14.7205 4.47427 16.6676 4.78141 18.579L6.26241 18.341ZM17.7747 13.0221C18.0328 14.7867 18.0202 16.5803 17.7373 18.341L19.2183 18.579C19.5254 16.6676 19.5391 14.7205 19.259 12.805L17.7747 13.0221ZM11.8136 5.33206C11.913 5.22112 12.0867 5.22112 12.1861 5.33206L13.3034 4.3313C12.6079 3.55471 11.3918 3.55471 10.6963 4.3313L11.8136 5.33206ZM7.32696 19.2481C6.79751 19.2481 6.34641 18.8637 6.26241 18.341L4.78141 18.579C4.98227 19.829 6.06095 20.7481 7.32696 20.7481V19.2481ZM16.6727 20.7481C17.9387 20.7481 19.0174 19.829 19.2183 18.579L17.7373 18.341C17.6533 18.8637 17.2022 19.2481 16.6727 19.2481V20.7481Z" fill="#353949"/>
<path d="M11.9995 13.5039C13.3258 13.5039 14.4009 14.5342 14.4009 15.8052V20.0003H9.59817V15.8052C9.59817 14.5342 10.6733 13.5039 11.9995 13.5039Z" fill="white" stroke="#353949" stroke-width="1.5" stroke-linecap="round" stroke-linejoin="round"/>
</svg>
