<svg width="24" height="24" viewBox="0 0 24 24" fill="none" xmlns="http://www.w3.org/2000/svg">
<path fill-rule="evenodd" clip-rule="evenodd" d="M9.95522 18.635L17.9845 11.033C19.3192 9.76937 19.216 7.53251 17.7569 6.09815C16.3322 4.69756 14.1593 4.60131 12.9034 5.88317L5.09302 13.8553C5.09302 13.8553 6.8232 14.5436 8.0391 15.7389C9.255 16.9342 9.95522 18.635 9.95522 18.635Z" fill="#F2F3F5"/>
<path d="M9.95522 18.635L9.26567 18.8548C9.36516 19.0964 9.57505 19.2845 9.82396 19.3551C10.0729 19.4257 10.3273 19.3693 10.5008 19.205L9.95522 18.635ZM5.09302 13.8553L4.53037 13.302C4.36074 13.4752 4.3012 13.733 4.37253 13.9856C4.44386 14.2381 4.63616 14.4504 4.88235 14.5483L5.09302 13.8553ZM17.9845 11.033L17.4389 10.463L17.9845 11.033ZM5.65568 14.4085L13.4661 6.4364L12.3408 5.32993L4.53037 13.302L5.65568 14.4085ZM17.4389 10.463L9.40962 18.065L10.5008 19.205L18.5301 11.603L17.4389 10.463ZM5.09302 13.8553C4.88235 14.5483 4.88222 14.5483 4.8821 14.5482C4.88207 14.5482 4.88195 14.5482 4.88189 14.5482C4.88176 14.5481 4.88166 14.5481 4.88159 14.548C4.88144 14.548 4.88139 14.548 4.88144 14.548C4.88155 14.548 4.88207 14.5482 4.88298 14.5486C4.88481 14.5493 4.88824 14.5507 4.89319 14.5528C4.90309 14.5568 4.91908 14.5635 4.94062 14.5727C4.98373 14.591 5.04889 14.6194 5.13182 14.6575C5.29802 14.7338 5.53359 14.8481 5.80473 14.9972C6.35515 15.3 7.01527 15.7263 7.54315 16.2453L8.53504 15.2326C7.84703 14.5562 7.03411 14.0407 6.41546 13.7005C6.10207 13.5281 5.8291 13.3956 5.6329 13.3055C5.53463 13.2604 5.45512 13.2256 5.39886 13.2017C5.37072 13.1897 5.34835 13.1804 5.33231 13.1738C5.32429 13.1705 5.31785 13.1679 5.31306 13.1659C5.31067 13.165 5.30868 13.1642 5.30712 13.1635C5.30634 13.1632 5.30566 13.163 5.30509 13.1627C5.30481 13.1626 5.30455 13.1625 5.30432 13.1624C5.3042 13.1624 5.30405 13.1623 5.30399 13.1623C5.30384 13.1622 5.3037 13.1622 5.09302 13.8553ZM7.54315 16.2453C8.07064 16.7638 8.5035 17.4116 8.81063 17.9513C8.96197 18.2172 9.07791 18.4482 9.15529 18.611C9.1939 18.6922 9.22267 18.756 9.24124 18.7982C9.25051 18.8192 9.25722 18.8348 9.26131 18.8444C9.26336 18.8492 9.26475 18.8526 9.26548 18.8543C9.26584 18.8552 9.26604 18.8556 9.26607 18.8557C9.26609 18.8558 9.26606 18.8557 9.266 18.8555C9.26596 18.8555 9.26592 18.8554 9.26586 18.8552C9.26584 18.8552 9.26579 18.855 9.26577 18.855C9.26572 18.8549 9.26567 18.8548 9.95522 18.635C10.6448 18.4153 10.6447 18.4152 10.6446 18.415C10.6446 18.415 10.6446 18.4148 10.6445 18.4147C10.6444 18.4145 10.6443 18.4142 10.6442 18.4139C10.6439 18.4134 10.6437 18.4127 10.6433 18.4119C10.6427 18.4103 10.6419 18.4083 10.6409 18.406C10.6389 18.4012 10.6362 18.3948 10.6328 18.3869C10.626 18.371 10.6165 18.3489 10.6043 18.3211C10.5798 18.2655 10.5444 18.1871 10.4983 18.0902C10.4064 17.8968 10.2713 17.6279 10.0956 17.3192C9.74866 16.7095 9.22346 15.9093 8.53504 15.2326L7.54315 16.2453ZM18.5301 11.603C20.1559 10.0638 20.0302 7.33902 18.2528 5.5918L17.2609 6.60449C18.4018 7.72601 18.4825 9.47498 17.4389 10.463L18.5301 11.603ZM13.4661 6.4364C14.448 5.43414 16.147 5.50939 17.2609 6.60449L18.2528 5.5918C16.5173 3.88573 13.8705 3.76849 12.3408 5.32993L13.4661 6.4364Z" fill="#505567"/>
<path d="M4.24875 20.1086L9.95056 18.641C9.95056 18.641 9.25191 16.9395 8.03711 15.7431C6.82231 14.5467 5.09277 13.8568 5.09277 13.8568L3.59273 19.4469C3.49151 19.8241 3.87016 20.2061 4.24875 20.1086Z" fill="white"/>
<path d="M9.95056 18.641L10.2086 19.3688C10.4018 19.319 10.5574 19.1895 10.639 19.0105C10.7206 18.8315 10.7211 18.6187 10.6403 18.4219L9.95056 18.641ZM4.24875 20.1086L4.5068 20.8364L4.5068 20.8364L4.24875 20.1086ZM3.59273 19.4469L2.86675 19.182L2.86675 19.182L3.59273 19.4469ZM5.09277 13.8568L5.30408 13.1639C5.10925 13.0862 4.89955 13.0879 4.72291 13.1685C4.54626 13.2492 4.41776 13.402 4.36679 13.592L5.09277 13.8568ZM8.03711 15.7431L7.54069 16.249L8.03711 15.7431ZM9.69251 17.9132L3.99071 19.3809L4.5068 20.8364L10.2086 19.3688L9.69251 17.9132ZM4.31871 19.7117L5.81875 14.1216L4.36679 13.592L2.86675 19.182L4.31871 19.7117ZM5.09277 13.8568C4.88145 14.5497 4.88132 14.5496 4.8812 14.5496C4.88117 14.5496 4.88106 14.5495 4.88099 14.5495C4.88087 14.5495 4.88077 14.5494 4.88069 14.5494C4.88054 14.5493 4.88049 14.5493 4.88055 14.5493C4.88066 14.5494 4.88117 14.5496 4.88209 14.55C4.88392 14.5507 4.88734 14.5521 4.89229 14.5541C4.90219 14.5582 4.91817 14.5649 4.9397 14.5741C4.9828 14.5925 5.04793 14.6209 5.13082 14.6591C5.29696 14.7355 5.53242 14.85 5.80342 14.9994C6.35356 15.3027 7.01329 15.7296 7.54069 16.249L8.53352 15.2372C7.84612 14.5602 7.03368 14.044 6.41535 13.7032C6.10212 13.5305 5.82927 13.3978 5.63315 13.3075C5.53492 13.2623 5.45544 13.2275 5.39921 13.2035C5.37107 13.1915 5.34871 13.1822 5.33268 13.1756C5.32467 13.1722 5.31823 13.1696 5.31344 13.1677C5.31105 13.1667 5.30906 13.1659 5.3075 13.1653C5.30672 13.165 5.30604 13.1647 5.30547 13.1645C5.30519 13.1644 5.30493 13.1642 5.3047 13.1642C5.30458 13.1641 5.30443 13.164 5.30437 13.164C5.30422 13.164 5.30408 13.1639 5.09277 13.8568ZM7.54069 16.249C8.0677 16.768 8.49997 17.4163 8.8066 17.9562C8.9577 18.2222 9.07342 18.4533 9.15065 18.6162C9.18919 18.6975 9.2179 18.7613 9.23643 18.8035C9.24568 18.8245 9.25237 18.8401 9.25646 18.8498C9.2585 18.8546 9.25989 18.8579 9.26061 18.8596C9.26098 18.8605 9.26118 18.861 9.26121 18.861C9.26122 18.8611 9.2612 18.861 9.26113 18.8609C9.2611 18.8608 9.26106 18.8607 9.261 18.8605C9.26097 18.8605 9.26093 18.8604 9.26091 18.8603C9.26086 18.8602 9.26081 18.8601 9.95056 18.641C10.6403 18.4219 10.6402 18.4218 10.6402 18.4216C10.6402 18.4216 10.6401 18.4214 10.64 18.4213C10.64 18.421 10.6398 18.4208 10.6397 18.4205C10.6395 18.4199 10.6392 18.4192 10.6389 18.4185C10.6382 18.4169 10.6374 18.4149 10.6364 18.4125C10.6344 18.4078 10.6317 18.4014 10.6284 18.3934C10.6216 18.3775 10.6121 18.3554 10.5999 18.3276C10.5755 18.272 10.5401 18.1936 10.4942 18.0967C10.4024 17.9032 10.2676 17.6341 10.0922 17.3252C9.74577 16.7153 9.22132 15.9146 8.53352 15.2372L7.54069 16.249ZM3.99071 19.3809C4.18 19.3321 4.36933 19.5231 4.31871 19.7117L2.86675 19.182C2.61369 20.1251 3.56032 21.08 4.5068 20.8364L3.99071 19.3809Z" fill="#505567"/>
</svg>
