<svg width="24" height="24" viewBox="0 0 24 24" fill="none" xmlns="http://www.w3.org/2000/svg">
<path d="M4.34576 16.879C4.50641 18.319 5.6578 19.4698 7.09709 19.6361C8.68414 19.8196 10.3235 19.999 12.0004 19.999C13.6774 19.999 15.3167 19.8196 16.9037 19.6361C18.343 19.4698 19.4944 18.319 19.6551 16.879C19.8313 15.2996 20 13.6682 20 11.9994C20 10.3307 19.8313 8.69933 19.6551 7.11987C19.4944 5.67993 18.343 4.5291 16.9038 4.36275C15.3167 4.17932 13.6774 3.99986 12.0004 3.99986C10.3235 3.99986 8.68414 4.17932 7.09709 4.36275C5.6578 4.5291 4.50641 5.67993 4.34576 7.11987C4.16955 8.69933 4.00084 10.3307 4.00084 11.9994C4.00084 13.6682 4.16955 15.2996 4.34576 16.879Z" fill="#F2F3F5"/>
<path d="M19.6551 16.879L18.9097 16.7959L19.6551 16.879ZM7.09709 4.36275L7.1832 5.10779L7.09709 4.36275ZM7.09709 19.6361L7.01098 20.3812L7.09709 19.6361ZM12.0004 19.249C10.3719 19.249 8.77218 19.0747 7.1832 18.8911L7.01098 20.3812C8.59609 20.5644 10.275 20.749 12.0004 20.749V19.249ZM16.8176 18.8911C15.2287 19.0747 13.6289 19.249 12.0004 19.249V20.749C13.7259 20.749 15.4047 20.5644 16.9899 20.3812L16.8176 18.8911ZM20.4005 16.9622C20.5766 15.383 20.75 13.7143 20.75 11.9994H19.25C19.25 13.622 19.0859 15.2161 18.9097 16.7959L20.4005 16.9622ZM20.75 11.9994C20.75 10.2845 20.5766 8.61591 20.4005 7.03671L18.9097 7.20303C19.0859 8.78274 19.25 10.3768 19.25 11.9994H20.75ZM12.0004 4.74986C13.6289 4.74986 15.2287 4.92414 16.8176 5.10779L16.9899 3.61771C15.4047 3.43451 13.7259 3.24986 12.0004 3.24986V4.74986ZM7.1832 5.10779C8.77218 4.92414 10.3719 4.74986 12.0004 4.74986V3.24986C10.275 3.24986 8.59609 3.43451 7.01098 3.61771L7.1832 5.10779ZM3.60039 7.03671C3.4242 8.61591 3.25084 10.2845 3.25084 11.9994H4.75084C4.75084 10.3768 4.91489 8.78274 5.09114 7.20303L3.60039 7.03671ZM3.25084 11.9994C3.25084 13.7143 3.4242 15.383 3.60039 16.9622L5.09114 16.7959C4.91489 15.2161 4.75084 13.622 4.75084 11.9994H3.25084ZM20.4005 7.03671C20.2009 5.24785 18.7746 3.82398 16.9899 3.61771L16.8176 5.10779C17.9115 5.23421 18.788 6.11201 18.9097 7.20303L20.4005 7.03671ZM16.9899 20.3812C18.7746 20.1749 20.2009 18.751 20.4005 16.9622L18.9097 16.7959C18.788 17.8869 17.9115 18.7647 16.8176 18.8911L16.9899 20.3812ZM7.01098 3.61771C5.22625 3.82398 3.79997 5.24785 3.60039 7.03671L5.09114 7.20303C5.21286 6.11201 6.08935 5.23421 7.1832 5.10779L7.01098 3.61771ZM7.1832 18.8911C6.08935 18.7647 5.21286 17.8869 5.09114 16.7959L3.60039 16.9622C3.79997 18.751 5.22625 20.1749 7.01098 20.3812L7.1832 18.8911Z" fill="#505567"/>
<path d="M12.7507 8.79915C12.7507 8.38494 12.415 8.04915 12.0007 8.04915C11.5865 8.04915 11.2507 8.38493 11.2507 8.79915L12.7507 8.79915ZM11.2507 15.1996C11.2507 15.6138 11.5865 15.9496 12.0007 15.9496C12.415 15.9496 12.7507 15.6138 12.7507 15.1996L11.2507 15.1996ZM11.2507 8.79915L11.2507 15.1996L12.7507 15.1996L12.7507 8.79915L11.2507 8.79915Z" fill="#505567"/>
<path d="M15.2002 12.7486C15.6144 12.7486 15.9502 12.4128 15.9502 11.9986C15.9502 11.5844 15.6144 11.2486 15.2002 11.2486L15.2002 12.7486ZM8.79972 11.2486C8.38551 11.2486 8.04972 11.5844 8.04972 11.9986C8.04972 12.4128 8.38551 12.7486 8.79972 12.7486L8.79972 11.2486ZM15.2002 11.2486L8.79972 11.2486L8.79972 12.7486L15.2002 12.7486L15.2002 11.2486Z" fill="#505567"/>
</svg>
