<svg width="24" height="24" viewBox="0 0 24 24" fill="none" xmlns="http://www.w3.org/2000/svg">
<path d="M3.99986 7.83311H20.001" stroke="#505567" stroke-width="1.5" stroke-linecap="round"/>
<path d="M17.7491 7.83311H6.2467L6.16438 9.32141C6.00666 12.1729 6.14067 15.0331 6.56431 17.8574C6.74905 19.089 7.80703 20.0001 9.05241 20.0001H14.9434C16.1888 20.0001 17.2467 19.089 17.4315 17.8574C17.8551 15.0331 17.9891 12.1729 17.8314 9.32141L17.7491 7.83311Z" fill="#F2F3F5"/>
<path d="M6.2467 7.83311V7.08311C5.84857 7.08311 5.51983 7.39418 5.49784 7.7917L6.2467 7.83311ZM17.7491 7.83311L18.4979 7.7917C18.476 7.39418 18.1472 7.08311 17.7491 7.08311V7.83311ZM17.8314 9.32141L18.5803 9.27999V9.27999L17.8314 9.32141ZM6.16438 9.32141L5.41552 9.27999L6.16438 9.32141ZM6.56431 17.8574L5.82261 17.9686L6.56431 17.8574ZM17.4315 17.8574L18.1732 17.9686L17.4315 17.8574ZM6.2467 8.58311H17.7491V7.08311H6.2467V8.58311ZM14.9434 19.2501H9.05241V20.7501H14.9434V19.2501ZM17.0002 7.87453L17.0826 9.36283L18.5803 9.27999L18.4979 7.7917L17.0002 7.87453ZM6.91323 9.36283L6.99555 7.87453L5.49784 7.7917L5.41552 9.27999L6.91323 9.36283ZM7.30601 17.7461C6.88995 14.9724 6.75834 12.1633 6.91323 9.36283L5.41552 9.27999C5.25499 12.1825 5.39139 15.0938 5.82261 17.9686L7.30601 17.7461ZM17.0826 9.36283C17.2374 12.1633 17.1058 14.9724 16.6898 17.7461L18.1732 17.9686C18.6044 15.0938 18.7408 12.1825 18.5803 9.27999L17.0826 9.36283ZM9.05241 19.2501C8.17828 19.2501 7.43568 18.6106 7.30601 17.7461L5.82261 17.9686C6.06242 19.5674 7.43579 20.7501 9.05241 20.7501V19.2501ZM14.9434 20.7501C16.56 20.7501 17.9334 19.5674 18.1732 17.9686L16.6898 17.7461C16.5601 18.6106 15.8175 19.2501 14.9434 19.2501V20.7501Z" fill="#505567"/>
<path d="M8.80249 7.83302V7.194C8.80249 6.3466 9.13912 5.53391 9.73832 4.93471C10.3375 4.33551 11.1502 3.99889 11.9976 3.99889C12.845 3.99889 13.6577 4.33551 14.2569 4.93471C14.8561 5.53391 15.1927 6.3466 15.1927 7.194V7.83302" stroke="#505567" stroke-width="1.5" stroke-linecap="round" stroke-linejoin="round"/>
<path d="M10.0808 11.2546V16.5514" stroke="#505567" stroke-width="1.5" stroke-linecap="round" stroke-linejoin="round"/>
<path d="M13.915 11.2546V16.5514" stroke="#505567" stroke-width="1.5" stroke-linecap="round" stroke-linejoin="round"/>
</svg>
