<svg width="24" height="24" viewBox="0 0 24 24" fill="none" xmlns="http://www.w3.org/2000/svg">
<path d="M4.36554 17.997C4.53644 19.4353 5.69522 20.5766 7.14116 20.661C8.76275 20.7556 10.3992 20.8052 12.2082 20.8052C14.0173 20.8052 15.6537 20.7556 17.2753 20.661C18.7213 20.5766 19.88 19.4353 20.0509 17.997C20.2377 16.4255 20.416 14.8024 20.416 13.1422C20.416 11.482 20.2377 9.85897 20.0509 8.28746C19.88 6.84918 18.7213 5.70784 17.2753 5.6235C15.6537 5.5289 14.0173 5.47932 12.2082 5.47932C10.3992 5.47932 8.76275 5.5289 7.14116 5.6235C5.69522 5.70784 4.53644 6.84918 4.36554 8.28746C4.17881 9.85897 4.00047 11.482 4.00047 13.1422C4.00047 14.8024 4.17881 16.4255 4.36554 17.997Z" fill="white"/>
<path d="M19.8286 11.8698L4.58964 11.8698L4.80355 6.44604L12.1193 5.91543L19.8286 6.44604L19.8286 11.8698Z" fill="#F2F3F5"/>
<path d="M9.18865 4.00063L9.18865 7.41391" stroke="#505567" stroke-width="1.5" stroke-linecap="round"/>
<path d="M15.2183 4.00063L15.2183 7.41391" stroke="#505567" stroke-width="1.5" stroke-linecap="round"/>
<path d="M17.2753 5.6235L17.2316 6.37222L17.2753 5.6235ZM17.2753 20.661L17.2316 19.9123L17.2753 20.661ZM12.2082 20.0552C10.4135 20.0552 8.79164 20.006 7.18484 19.9123L7.09749 21.4097C8.73385 21.5052 10.3848 21.5552 12.2082 21.5552V20.0552ZM17.2316 19.9123C15.6248 20.006 14.003 20.0552 12.2082 20.0552V21.5552C14.0316 21.5552 15.6826 21.5052 17.319 21.4097L17.2316 19.9123ZM20.7957 18.0855C20.9824 16.5141 21.166 14.8515 21.166 13.1422H19.666C19.666 14.7534 19.4929 16.3369 19.3062 17.9085L20.7957 18.0855ZM21.166 13.1422C21.166 11.433 20.9824 9.77035 20.7957 8.19897L19.3062 8.37596C19.4929 9.94759 19.666 11.5311 19.666 13.1422H21.166ZM12.2082 6.22932C14.003 6.22932 15.6248 6.27849 17.2316 6.37222L17.319 4.87477C15.6826 4.77932 14.0316 4.72932 12.2082 4.72932V6.22932ZM7.18484 6.37222C8.79164 6.27849 10.4135 6.22932 12.2082 6.22932V4.72932C10.3848 4.72932 8.73385 4.77932 7.09749 4.87477L7.18484 6.37222ZM3.62078 8.19897C3.43406 9.77035 3.25047 11.433 3.25047 13.1422H4.75047C4.75047 11.5311 4.92355 9.94759 5.1103 8.37596L3.62078 8.19897ZM3.25047 13.1422C3.25047 14.8515 3.43406 16.5141 3.62078 18.0855L5.1103 17.9085C4.92355 16.3369 4.75047 14.7534 4.75047 13.1422H3.25047ZM20.7957 8.19897C20.584 6.41721 19.1449 4.98128 17.319 4.87477L17.2316 6.37222C18.2976 6.43441 19.1761 7.28115 19.3062 8.37596L20.7957 8.19897ZM17.319 21.4097C19.1449 21.3032 20.584 19.8673 20.7957 18.0855L19.3062 17.9085C19.1761 19.0033 18.2976 19.8501 17.2316 19.9123L17.319 21.4097ZM7.09749 4.87477C5.27156 4.98128 3.83249 6.41721 3.62078 8.19897L5.1103 8.37596C5.24039 7.28115 6.11889 6.4344 7.18484 6.37222L7.09749 4.87477ZM7.18484 19.9123C6.11889 19.8501 5.24039 19.0033 5.1103 17.9085L3.62078 18.0855C3.83249 19.8673 5.27156 21.3032 7.09749 21.4097L7.18484 19.9123Z" fill="#505567"/>
<path d="M4.39339 11.3594H20.1042" stroke="#505567" stroke-width="1.5"/>
</svg>
