<svg width="24" height="24" viewBox="0 0 24 24" fill="none" xmlns="http://www.w3.org/2000/svg">
<path d="M18.7719 13.2471C18.7282 13.1901 18.7045 13.1194 18.7047 13.0466V10.9534C18.7045 10.8806 18.7282 10.8099 18.7719 10.7529L19.707 9.543C19.8752 9.32555 19.976 9.06076 19.9962 8.78321C20.0164 8.50566 19.9551 8.22827 19.8203 7.98729L19.2749 7.01271C19.1404 6.77152 18.9386 6.57782 18.6958 6.45694C18.453 6.33606 18.1806 6.29361 17.9141 6.33514L16.4324 6.56786C16.3624 6.57801 16.291 6.564 16.2295 6.528L14.4739 5.48143C14.4121 5.44304 14.3647 5.38411 14.3395 5.31429L13.7929 3.87943C13.695 3.62059 13.5239 3.39822 13.3018 3.24134C13.0797 3.08446 12.8169 3.00035 12.5478 3H11.4547C11.1856 3.00035 10.9228 3.08446 10.7007 3.24134C10.4786 3.39822 10.3075 3.62059 10.2096 3.87943L9.66052 5.31429C9.63436 5.38221 9.58705 5.4392 9.52605 5.47629L7.76678 6.528C7.70526 6.56409 7.63389 6.57811 7.56383 6.56786L6.08594 6.33514C5.81942 6.29361 5.54698 6.33606 5.30419 6.45694C5.06141 6.57782 4.85958 6.77152 4.72508 7.01271L4.17974 7.98729C4.04489 8.22827 3.98356 8.50566 4.00377 8.78321C4.02399 9.06076 4.1248 9.32555 4.29304 9.543L5.22809 10.7529C5.27184 10.8099 5.29555 10.8806 5.29532 10.9534V13.0466C5.29555 13.1194 5.27184 13.1901 5.22809 13.2471L4.29304 14.457C4.1248 14.6744 4.02399 14.9392 4.00377 15.2168C3.98356 15.4943 4.04489 15.7717 4.17974 16.0127L4.72508 16.9873C4.85958 17.2285 5.06141 17.4222 5.30419 17.5431C5.54698 17.6639 5.81942 17.7064 6.08594 17.6649L7.56757 17.4321C7.63762 17.4219 7.70899 17.4359 7.77051 17.472L9.52605 18.5186C9.58705 18.5557 9.63436 18.6127 9.66052 18.6806L10.2071 20.1206C10.305 20.3794 10.4761 20.6018 10.6982 20.7587C10.9203 20.9155 11.1831 20.9996 11.4522 21H12.5428C12.8119 20.9996 13.0747 20.9155 13.2968 20.7587C13.5189 20.6018 13.69 20.3794 13.7879 20.1206L14.3345 18.6806C14.3607 18.6127 14.408 18.5557 14.469 18.5186L16.2245 17.472C16.2861 17.436 16.3574 17.422 16.4275 17.4321L17.9091 17.6649C18.1756 17.7064 18.448 17.6639 18.6908 17.5431C18.9336 17.4222 19.1354 17.2285 19.2699 16.9873L19.8153 16.0127C19.9501 15.7717 20.0115 15.4943 19.9912 15.2168C19.971 14.9392 19.8702 14.6744 19.702 14.457L18.7719 13.2471ZM12 14.8929C11.4459 14.8929 10.9043 14.7232 10.4436 14.4053C9.98294 14.0875 9.62388 13.6356 9.41184 13.107C9.19981 12.5784 9.14434 11.9968 9.25243 11.4356C9.36052 10.8745 9.62733 10.359 10.0191 9.95444C10.4109 9.54987 10.9101 9.27435 11.4535 9.16273C11.9969 9.05111 12.5602 9.1084 13.072 9.32735C13.5839 9.5463 14.0215 9.91709 14.3293 10.3928C14.6371 10.8685 14.8014 11.4278 14.8014 12C14.8014 12.7672 14.5063 13.503 13.9809 14.0456C13.4555 14.5881 12.743 14.8929 12 14.8929Z" fill="#F2F3F5" stroke="#353949" stroke-width="1.5"/>
</svg>
