<svg width="24" height="24" viewBox="0 0 24 24" fill="none" xmlns="http://www.w3.org/2000/svg">
<path d="M21 12C21 13.5917 16.9706 19.2 12 19.2C7.02944 19.2 3 13.5917 3 12C3 10.4083 7.02944 4.8 12 4.8C16.9706 4.8 21 10.4083 21 12Z" fill="white"/>
<path d="M20.25 12C20.25 12.0628 20.2246 12.2231 20.1189 12.4925C20.0183 12.749 19.8628 13.0597 19.6518 13.4071C19.2298 14.1016 18.61 14.9033 17.8382 15.6621C16.2782 17.1956 14.207 18.45 12 18.45V19.95C14.7636 19.95 17.1924 18.4003 18.8897 16.7318C19.7466 15.8894 20.4448 14.9906 20.9337 14.1859C21.1781 13.7837 21.3762 13.3951 21.5154 13.0402C21.6495 12.6983 21.75 12.3352 21.75 12H20.25ZM12 18.45C9.79301 18.45 7.7218 17.1956 6.16181 15.6621C5.39001 14.9033 4.77019 14.1016 4.34824 13.4071C4.13718 13.0597 3.98167 12.749 3.88107 12.4925C3.7754 12.2231 3.75 12.0628 3.75 12H2.25C2.25 12.3352 2.35052 12.6983 2.48463 13.0402C2.62381 13.3951 2.82193 13.7837 3.06629 14.1859C3.55519 14.9906 4.25339 15.8894 5.11027 16.7318C6.80764 18.4003 9.23642 19.95 12 19.95V18.45ZM3.75 12C3.75 11.9372 3.7754 11.7769 3.88107 11.5075C3.98167 11.251 4.13718 10.9403 4.34824 10.5929C4.77019 9.8984 5.39001 9.09666 6.16181 8.33795C7.7218 6.80445 9.79301 5.55 12 5.55V4.05C9.23642 4.05 6.80764 5.59969 5.11027 7.26825C4.25339 8.11059 3.55519 9.00936 3.06629 9.81407C2.82193 10.2163 2.62381 10.6049 2.48463 10.9598C2.35052 11.3017 2.25 11.6648 2.25 12H3.75ZM12 5.55C14.207 5.55 16.2782 6.80445 17.8382 8.33795C18.61 9.09666 19.2298 9.8984 19.6518 10.5929C19.8628 10.9403 20.0183 11.251 20.1189 11.5075C20.2246 11.7769 20.25 11.9372 20.25 12H21.75C21.75 11.6648 21.6495 11.3017 21.5154 10.9598C21.3762 10.6049 21.1781 10.2163 20.9337 9.81407C20.4448 9.00936 19.7466 8.11059 18.8897 7.26825C17.1924 5.59969 14.7636 4.05 12 4.05V5.55Z" fill="#353949"/>
<path d="M12 14.7C13.4912 14.7 14.7 13.4912 14.7 12C14.7 10.5088 13.4912 9.3 12 9.3C10.5088 9.3 9.3 10.5088 9.3 12C9.3 13.4912 10.5088 14.7 12 14.7Z" fill="white" stroke="#353949" stroke-width="1.5" stroke-linecap="round" stroke-linejoin="round"/>
</svg>
