<svg width="24" height="24" viewBox="0 0 24 24" fill="none" xmlns="http://www.w3.org/2000/svg">
<path d="M19 14C19 17.866 15.866 21 12 21C8.134 21 5 17.866 5 14" stroke="#B0B2B9" stroke-width="1.5" stroke-linecap="round" stroke-linejoin="round"/>
<path d="M19 14C15.134 14 12 17.134 12 21C12 17.134 8.866 14 5 14" stroke="#B0B2B9" stroke-width="1.5" stroke-linecap="round" stroke-linejoin="round"/>
<path fill-rule="evenodd" clip-rule="evenodd" d="M17.556 7.444V3.86C17.556 3.452 17.095 3.216 16.764 3.454L15.363 4.463C15.014 4.714 14.543 4.714 14.194 4.463L12.293 3.094C12.118 2.968 11.883 2.968 11.709 3.094L9.807 4.463C9.458 4.714 8.987 4.714 8.638 4.463L7.237 3.454C6.906 3.216 6.444 3.452 6.444 3.86V7.444C6.444 10.513 8.932 13 12 13C15.068 13 17.556 10.513 17.556 7.444Z" stroke="#B0B2B9" stroke-width="1.5" stroke-linecap="round" stroke-linejoin="round"/>
</svg>
