<svg width="24" height="24" viewBox="0 0 24 24" fill="none" xmlns="http://www.w3.org/2000/svg">
<path d="M3.49578 17.8199C3.61398 18.7778 4.38391 19.5321 5.34407 19.6302C7.48045 19.8483 9.70874 20.1168 11.9994 20.1168C14.2902 20.1168 16.5184 19.8483 18.6548 19.6302C19.615 19.5321 20.3849 18.7778 20.5031 17.8199C20.7339 15.9491 20.999 14.001 20.999 12C20.999 9.9989 20.7339 8.05083 20.5031 6.18005C20.3849 5.22215 19.615 4.4678 18.6548 4.36976C16.5184 4.15161 14.2902 3.88315 11.9994 3.88315C9.70874 3.88315 7.48045 4.15161 5.34407 4.36976C4.38391 4.4678 3.61398 5.22215 3.49578 6.18005C3.26495 8.05083 2.99986 9.9989 2.99986 12C2.99986 14.001 3.26495 15.9491 3.49578 17.8199Z" stroke="#353949" stroke-width="1.5" stroke-linejoin="round"/>
<path d="M3.44527 6.53452L10.7608 12.3026C11.487 12.8752 12.5112 12.8752 13.2374 12.3026L20.5529 6.53452" stroke="#353949" stroke-width="1.5" stroke-linejoin="round"/>
</svg>
