<svg width="24" height="24" viewBox="0 0 24 24" fill="none" xmlns="http://www.w3.org/2000/svg">
<path d="M5.6365 13.9509L2.25 17.4175L4.95833 19.0425L6.58333 21.7509L10.8072 17.3146" stroke="#B0B2B9" stroke-width="1.5" stroke-linecap="round" stroke-linejoin="round"/>
<path d="M13.1923 17.3146L17.4162 21.7509L19.0412 19.0425L21.7496 17.4175L18.3631 13.9509" stroke="#B0B2B9" stroke-width="1.5" stroke-linecap="round" stroke-linejoin="round"/>
<path d="M17.3622 4.47111C20.3237 7.43258 20.3237 12.2341 17.3622 15.1956C14.4007 18.157 9.59924 18.157 6.63776 15.1956C3.67629 12.2341 3.67629 7.43258 6.63776 4.47111C9.59924 1.50963 14.4007 1.50963 17.3622 4.47111" stroke="#B0B2B9" stroke-width="1.5" stroke-linecap="round" stroke-linejoin="round"/>
<path fill-rule="evenodd" clip-rule="evenodd" d="M11.9994 12.6319L13.9461 13.6546C14.3253 13.8539 14.7684 13.5322 14.6958 13.1097L14.3242 10.9419L15.8994 9.40792C16.2059 9.10892 16.0369 8.58783 15.6134 8.52608L13.4369 8.20975L12.4641 6.237C12.2745 5.85242 11.7274 5.85242 11.5379 6.237L10.565 8.20975L8.38753 8.52717C7.96394 8.58892 7.79494 9.11 8.10153 9.409L9.67669 10.943L9.30511 13.1108C9.23253 13.5333 9.67561 13.855 10.0548 13.6557L12.0015 12.633H11.9994V12.6319Z" stroke="#B0B2B9" stroke-width="1.5" stroke-linecap="round" stroke-linejoin="round"/>
</svg>
