<svg width="24" height="24" viewBox="0 0 24 24" fill="none" xmlns="http://www.w3.org/2000/svg">
<path fill-rule="evenodd" clip-rule="evenodd" d="M12 13.91C13.1046 13.91 14 13.0146 14 11.91C14 10.8054 13.1046 9.91 12 9.91C10.8954 9.91 10 10.8054 10 11.91C10 13.0146 10.8954 13.91 12 13.91Z" stroke="#B0B2B9" stroke-width="1.5" stroke-linecap="round" stroke-linejoin="round"/>
<path d="M6.5 14V11" stroke="#B0B2B9" stroke-width="1.5" stroke-linecap="round" stroke-linejoin="round"/>
<path d="M17.5 13V10" stroke="#B0B2B9" stroke-width="1.5" stroke-linecap="round" stroke-linejoin="round"/>
<path fill-rule="evenodd" clip-rule="evenodd" d="M19.804 18.213V18.213C17.299 17.712 14.715 17.774 12.237 18.393L12 18.453C9.366 19.111 6.619 19.177 3.957 18.644L3.804 18.613C3.336 18.52 3 18.109 3 17.633V6.79399C3 6.16299 3.577 5.68999 4.196 5.81299V5.81299C6.701 6.31399 9.285 6.25199 11.763 5.63299L12.236 5.51499C14.714 4.89599 17.299 4.83399 19.803 5.33499L20.195 5.41299C20.664 5.50699 21 5.91699 21 6.39399V17.233C21 17.864 20.423 18.337 19.804 18.213V18.213Z" stroke="#B0B2B9" stroke-width="1.5" stroke-linecap="round" stroke-linejoin="round"/>
</svg>
