<svg width="24" height="24" viewBox="0 0 24 24" fill="none" xmlns="http://www.w3.org/2000/svg">
<path d="M12 4C14.0275 4 15.6711 5.64359 15.6711 7.67105C15.6711 7.80833 15.6635 7.94385 15.6488 8.07722C16.1523 7.81762 16.7235 7.67105 17.3289 7.67105C19.3564 7.67105 21 9.31464 21 11.3421C21 13.0165 19.8791 14.429 18.3467 14.8702C18.8224 15.4892 19.1053 16.2642 19.1053 17.1053C19.1053 19.1327 17.4617 20.7763 15.4342 20.7763C13.8645 20.7763 12.5249 19.7911 12 18.4053C11.4751 19.7911 10.1355 20.7763 8.56579 20.7763C6.53832 20.7763 4.89474 19.1327 4.89474 17.1053C4.89474 16.2642 5.17756 15.4892 5.65329 14.8702C4.12093 14.429 3 13.0165 3 11.3421C3 9.31464 4.64359 7.67105 6.67105 7.67105C7.2765 7.67105 7.84772 7.81762 8.35116 8.07722C8.33648 7.94385 8.32895 7.80833 8.32895 7.67105C8.32895 5.64359 9.97253 4 12 4Z" fill="#F2F3F5" stroke="#505567" stroke-width="1.5" stroke-linejoin="round"/>
<ellipse rx="2.19418" ry="2.19418" transform="matrix(1 0 0 -1 11.9999 12.3874)" fill="white" stroke="#505567" stroke-width="1.5"/>
</svg>
