<svg width="24" height="24" viewBox="0 0 24 24" fill="none" xmlns="http://www.w3.org/2000/svg">
<path fill-rule="evenodd" clip-rule="evenodd" d="M7.99833 2.99625H16.0017C18.8028 2.99625 21.0037 5.19717 21.0037 7.99833V16.0017C21.0037 18.8028 18.8028 21.0037 16.0017 21.0037H7.99833C5.19716 21.0037 2.99625 18.8028 2.99625 16.0017V7.99833C2.99625 5.19717 5.19716 2.99625 7.99833 2.99625Z" stroke="#B0B2B9" stroke-width="1.5" stroke-linecap="round" stroke-linejoin="round"/>
<path d="M14.5472 9.45191C15.9533 10.8585 15.953 13.1386 14.5466 14.5449C13.1402 15.9512 10.86 15.9512 9.45358 14.5449C8.04714 13.1386 8.04689 10.8585 9.45303 9.45191C10.1285 8.77624 11.0447 8.39664 12.0001 8.39664C12.9555 8.39664 13.8717 8.77624 14.5472 9.45191" stroke="#B0B2B9" stroke-width="1.5" stroke-linecap="round" stroke-linejoin="round"/>
</svg>
