<svg width="24" height="24" viewBox="0 0 24 24" fill="none" xmlns="http://www.w3.org/2000/svg">
<path fill-rule="evenodd" clip-rule="evenodd" d="M12.607 3.271L14.057 2.562C14.726 2.235 15.535 2.497 15.884 3.156L16.641 4.582C16.841 4.958 17.203 5.221 17.623 5.295L19.213 5.574C19.947 5.703 20.446 6.39 20.342 7.128L20.116 8.726C20.056 9.148 20.195 9.574 20.491 9.88L21.613 11.04C22.131 11.575 22.131 12.425 21.613 12.961L20.491 14.121C20.195 14.427 20.056 14.853 20.116 15.275L20.342 16.873C20.446 17.611 19.947 18.298 19.213 18.427L17.623 18.706C17.203 18.78 16.841 19.043 16.641 19.419L15.884 20.845C15.535 21.503 14.727 21.766 14.057 21.439L12.607 20.73C12.224 20.543 11.777 20.543 11.394 20.73L9.944 21.439C9.275 21.766 8.466 21.504 8.117 20.845L7.36 19.418C7.16 19.042 6.798 18.779 6.378 18.705L4.788 18.426C4.054 18.297 3.555 17.61 3.659 16.872L3.885 15.274C3.945 14.852 3.806 14.426 3.51 14.12L2.388 12.96C1.87 12.425 1.87 11.575 2.388 11.039L3.51 9.879C3.806 9.573 3.945 9.147 3.885 8.725L3.66 7.127C3.555 6.39 4.055 5.702 4.789 5.574L6.379 5.295C6.798 5.221 7.16 4.958 7.36 4.582L8.117 3.156C8.466 2.498 9.274 2.235 9.944 2.562L11.394 3.271C11.776 3.458 12.224 3.458 12.607 3.271Z" stroke="#B0B2B9" stroke-width="1.5" stroke-linecap="round" stroke-linejoin="round"/>
<path d="M9 15L15 9" stroke="#B0B2B9" stroke-width="1.5" stroke-linecap="round" stroke-linejoin="round"/>
<path d="M9.249 9C9.111 9 8.999 9.112 9 9.25C9 9.388 9.112 9.5 9.25 9.5C9.388 9.5 9.5 9.388 9.5 9.25C9.5 9.112 9.388 9 9.249 9" stroke="#B0B2B9" stroke-width="1.5" stroke-linecap="round" stroke-linejoin="round"/>
<path d="M14.749 14.5C14.611 14.5 14.499 14.612 14.5 14.75C14.5 14.888 14.612 15 14.75 15C14.888 15 15 14.888 15 14.75C15 14.612 14.888 14.5 14.749 14.5" stroke="#B0B2B9" stroke-width="1.5" stroke-linecap="round" stroke-linejoin="round"/>
</svg>
