<svg width="24" height="24" viewBox="0 0 24 24" fill="none" xmlns="http://www.w3.org/2000/svg">
<path d="M14 18.5L19 13.5" stroke="#B0B2B9" stroke-width="1.5" stroke-linecap="round" stroke-linejoin="round"/>
<path d="M14.5607 11.9393C15.1465 12.5251 15.1465 13.4748 14.5607 14.0606C13.9749 14.6464 13.0252 14.6464 12.4394 14.0606C11.8536 13.4748 11.8536 12.5251 12.4394 11.9393C13.0252 11.3535 13.9749 11.3535 14.5607 11.9393" stroke="#B0B2B9" stroke-width="1.5" stroke-linecap="round" stroke-linejoin="round"/>
<path d="M20.5607 17.9393C21.1465 18.5251 21.1465 19.4748 20.5607 20.0606C19.9749 20.6464 19.0252 20.6464 18.4394 20.0606C17.8536 19.4748 17.8536 18.5251 18.4394 17.9393C19.0252 17.3535 19.9749 17.3535 20.5607 17.9393" stroke="#B0B2B9" stroke-width="1.5" stroke-linecap="round" stroke-linejoin="round"/>
<path d="M7 7.5H17" stroke="#B0B2B9" stroke-width="1.5" stroke-linecap="round" stroke-linejoin="round"/>
<path d="M7 11.5H9" stroke="#B0B2B9" stroke-width="1.5" stroke-linecap="round" stroke-linejoin="round"/>
<path d="M9 17.5H7C4.791 17.5 3 15.709 3 13.5V7.5C3 5.291 4.791 3.5 7 3.5H17C19.209 3.5 21 5.291 21 7.5V10.5" stroke="#B0B2B9" stroke-width="1.5" stroke-linecap="round" stroke-linejoin="round"/>
</svg>
