<svg width="24" height="24" viewBox="0 0 24 24" fill="none" xmlns="http://www.w3.org/2000/svg">
<path fill-rule="evenodd" clip-rule="evenodd" d="M19.1825 7.57547C21.2831 9.6761 21.2831 13.0819 19.1825 15.1825C17.0819 17.2832 13.6761 17.2832 11.5754 15.1825C9.47481 13.0819 9.47481 9.67611 11.5754 7.57547C13.6761 5.47484 17.0819 5.47484 19.1825 7.57547Z" fill="#F2F6F7"/>
<path d="M19.1825 7.57547C21.2831 9.6761 21.2831 13.0819 19.1825 15.1825C17.0819 17.2832 13.6761 17.2832 11.5754 15.1825C9.47481 13.0819 9.47481 9.67611 11.5754 7.57547C13.6761 5.47484 17.0819 5.47484 19.1825 7.57547" stroke="#505567" stroke-width="1.5" stroke-linecap="round" stroke-linejoin="round"/>
<path d="M22 18L19.18 15.18" stroke="#505567" stroke-width="1.5" stroke-linecap="round" stroke-linejoin="round"/>
<path d="M2 8H6" stroke="#505567" stroke-width="1.5" stroke-linecap="round" stroke-linejoin="round"/>
<path d="M2 13H7" stroke="#505567" stroke-width="1.5" stroke-linecap="round" stroke-linejoin="round"/>
<path d="M2 18H10" stroke="#505567" stroke-width="1.5" stroke-linecap="round" stroke-linejoin="round"/>
</svg>
