<svg width="24" height="24" viewBox="0 0 24 24" fill="none" xmlns="http://www.w3.org/2000/svg">
<path d="M20.9996 3.75C21.4138 3.75 21.7496 3.41421 21.7496 3C21.7496 2.58579 21.4138 2.25 20.9996 2.25V3.75ZM15.9246 8.58489C15.8322 8.98865 16.0845 9.39091 16.4883 9.48336C16.8921 9.57581 17.2943 9.32344 17.3868 8.91967L15.9246 8.58489ZM19.5666 3.75H20.9996V2.25H19.5666V3.75ZM16.886 4.38623L15.9246 8.58489L17.3868 8.91967L18.3481 4.72101L16.886 4.38623ZM19.5666 2.25C18.2843 2.25 17.1722 3.13626 16.886 4.38623L18.3481 4.72101C18.4782 4.15285 18.9837 3.75 19.5666 3.75V2.25Z" fill="#505567"/>
<path d="M3.03248 9.51013C3.19739 12.0582 3.95639 14.1531 4.52493 15.2926C4.71501 15.6737 5.02522 15.9751 5.43123 16.1034C6.10697 16.3169 7.43555 16.592 9.7957 16.592C12.1559 16.592 13.4844 16.3169 14.1602 16.1034C14.5662 15.9751 14.8764 15.6737 15.0665 15.2926C15.7078 14.0072 16.5914 11.5064 16.5914 8.51065H4C3.44772 8.51065 2.99681 8.959 3.03248 9.51013Z" fill="#F2F3F5"/>
<path d="M4.52493 15.2926L3.85381 15.6275L3.85381 15.6275L4.52493 15.2926ZM3.03248 9.51013L2.28404 9.55857L3.03248 9.51013ZM15.0665 15.2926L15.7376 15.6275L15.0665 15.2926ZM16.5914 8.51065H17.3414C17.3414 8.09644 17.0056 7.76065 16.5914 7.76065V8.51065ZM5.43123 16.1034L5.20526 16.8186L5.43123 16.1034ZM14.1602 16.1034L14.3861 16.8186L14.1602 16.1034ZM5.19604 14.9578C4.66516 13.8937 3.93844 11.8957 3.78091 9.46169L2.28404 9.55857C2.45634 12.2207 3.24763 14.4124 3.85381 15.6275L5.19604 14.9578ZM15.7376 15.6275C16.42 14.2597 17.3414 11.6446 17.3414 8.51065H15.8414C15.8414 11.3682 14.9956 13.7547 14.3954 14.9578L15.7376 15.6275ZM4 9.26065H16.5914V7.76065H4V9.26065ZM5.20526 16.8186C5.97188 17.0608 7.38007 17.342 9.7957 17.342V15.842C7.49104 15.842 6.24207 15.5731 5.6572 15.3883L5.20526 16.8186ZM9.7957 17.342C12.2113 17.342 13.6195 17.0608 14.3861 16.8186L13.9342 15.3883C13.3493 15.5731 12.1004 15.842 9.7957 15.842V17.342ZM14.3954 14.9578C14.2791 15.191 14.113 15.3318 13.9342 15.3883L14.3861 16.8186C15.0194 16.6185 15.4737 16.1563 15.7376 15.6275L14.3954 14.9578ZM3.78091 9.46169C3.77529 9.37478 3.84841 9.26065 4 9.26065V7.76065C3.04702 7.76065 2.21833 8.54322 2.28404 9.55857L3.78091 9.46169ZM3.85381 15.6275C4.11767 16.1563 4.57203 16.6185 5.20526 16.8186L5.6572 15.3883C5.47841 15.3318 5.31235 15.191 5.19604 14.9578L3.85381 15.6275Z" fill="#505567"/>
<path d="M4.8368 21.0013C5.24255 21.0013 5.57147 20.6724 5.57147 20.2666C5.57147 19.8609 5.24255 19.5319 4.8368 19.5319C4.43105 19.5319 4.10213 19.8609 4.10213 20.2666C4.10213 20.6724 4.43105 21.0013 4.8368 21.0013Z" fill="#505567" stroke="#505567" stroke-width="1.5" stroke-linecap="round" stroke-linejoin="round"/>
<path d="M14.3879 21.0013C14.7936 21.0013 15.1225 20.6724 15.1225 20.2666C15.1225 19.8609 14.7936 19.5319 14.3879 19.5319C13.9821 19.5319 13.6532 19.8609 13.6532 20.2666C13.6532 20.6724 13.9821 21.0013 14.3879 21.0013Z" fill="#505567" stroke="#505567" stroke-width="1.5" stroke-linecap="round" stroke-linejoin="round"/>
</svg>
