<svg width="24" height="25" viewBox="0 0 24 25" fill="none" xmlns="http://www.w3.org/2000/svg">
<path d="M19.8501 19.064L19.1242 18.8754L19.8501 19.064ZM20.9744 10.754L21.7237 10.7861L20.9744 10.754ZM5.69568 20.5789L5.83173 19.8414L5.69568 20.5789ZM2.27629 10.7861C2.35909 12.7179 2.6576 16.3013 3.42399 19.2525L4.87583 18.8754C4.14868 16.0754 3.85603 12.6143 3.77491 10.7219L2.27629 10.7861ZM5.55963 21.3165C6.78925 21.5433 8.85701 21.7554 12 21.7554V20.2554C8.91602 20.2554 6.94465 20.0467 5.83173 19.8414L5.55963 21.3165ZM20.2251 10.7219C20.144 12.6143 19.8513 16.0754 19.1242 18.8754L20.576 19.2525C21.3424 16.3013 21.6409 12.7179 21.7237 10.7861L20.2251 10.7219ZM18.1683 19.8414C17.0553 20.0467 15.084 20.2554 12 20.2554V21.7554C15.143 21.7554 17.2107 21.5433 18.4404 21.3165L18.1683 19.8414ZM4 10.5054H20V9.00537H4V10.5054ZM19.1242 18.8754C18.986 19.4076 18.6218 19.7577 18.1683 19.8414L18.4404 21.3165C19.5517 21.1115 20.3142 20.2605 20.576 19.2525L19.1242 18.8754ZM21.7237 10.7861C21.7664 9.78985 20.9608 9.00537 20 9.00537V10.5054C20.1438 10.5054 20.2297 10.6146 20.2251 10.7219L21.7237 10.7861ZM3.42399 19.2525C3.68577 20.2605 4.44831 21.1115 5.55963 21.3165L5.83173 19.8414C5.37815 19.7577 5.01403 19.4076 4.87583 18.8754L3.42399 19.2525ZM3.77491 10.7219C3.77032 10.6146 3.85623 10.5054 4 10.5054V9.00537C3.0392 9.00537 2.23359 9.78985 2.27629 10.7861L3.77491 10.7219Z" fill="white"/>
<path d="M6.00098 9.75537C6.00098 10.1696 6.33676 10.5054 6.75098 10.5054C7.16519 10.5054 7.50098 10.1696 7.50098 9.75537H6.00098ZM16.501 9.75537C16.501 10.1696 16.8368 10.5054 17.251 10.5054C17.6652 10.5054 18.001 10.1696 18.001 9.75537H16.501ZM7.50098 9.75537V8.00537H6.00098V9.75537H7.50098ZM11.751 3.75537H12.251V2.25537H11.751V3.75537ZM16.501 8.00537V9.75537H18.001V8.00537H16.501ZM12.251 3.75537C14.5982 3.75537 16.501 5.65816 16.501 8.00537H18.001C18.001 4.82973 15.4266 2.25537 12.251 2.25537V3.75537ZM7.50098 8.00537C7.50098 5.65816 9.40377 3.75537 11.751 3.75537V2.25537C8.57534 2.25537 6.00098 4.82973 6.00098 8.00537H7.50098Z" fill="white"/>
<path d="M9.00049 14.2554V16.5054M15.0005 14.2554V16.5054" stroke="white" stroke-width="1.5" stroke-linecap="round" stroke-linejoin="round"/>
</svg>
