<svg width="24" height="24" viewBox="0 0 24 24" fill="none" xmlns="http://www.w3.org/2000/svg">
<path d="M12.0004 21C17.7608 21 21.001 17.7598 21.001 11.9994C21.001 6.23909 17.7608 2.99889 12.0004 2.99889C6.24006 2.99889 2.99986 6.23909 2.99986 11.9994C2.99986 17.7598 6.24006 21 12.0004 21Z" fill="#F2F3F5"/>
<path d="M20.251 11.9994C20.251 14.7416 19.4821 16.778 18.1305 18.1295C16.7789 19.4811 14.7425 20.25 12.0004 20.25V21.75C15.0187 21.75 17.4825 20.8988 19.1912 19.1902C20.8998 17.4816 21.751 15.0177 21.751 11.9994H20.251ZM12.0004 20.25C9.25829 20.25 7.22191 19.4811 5.87034 18.1295C4.51876 16.778 3.74986 14.7416 3.74986 11.9994H2.24986C2.24986 15.0177 3.10106 17.4816 4.80968 19.1902C6.51829 20.8988 8.98219 21.75 12.0004 21.75V20.25ZM3.74986 11.9994C3.74986 9.25732 4.51876 7.22093 5.87034 5.86936C7.22191 4.51779 9.25829 3.74889 12.0004 3.74889V2.24889C8.98219 2.24889 6.51829 3.10008 4.80968 4.8087C3.10106 6.51732 2.24986 8.98121 2.24986 11.9994H3.74986ZM12.0004 3.74889C14.7425 3.74889 16.7789 4.51779 18.1305 5.86936C19.4821 7.22093 20.251 9.25732 20.251 11.9994H21.751C21.751 8.98121 20.8998 6.51732 19.1912 4.8087C17.4825 3.10008 15.0187 2.24889 12.0004 2.24889V3.74889Z" fill="#505567"/>
<path d="M8.39949 15.6006L15.5999 8.40016" stroke="#505567" stroke-width="1.5" stroke-linecap="round" stroke-linejoin="round"/>
<path d="M9.11954 9.84025C9.51721 9.84025 9.83958 9.51788 9.83958 9.12021C9.83958 8.72254 9.51721 8.40016 9.11954 8.40016C8.72187 8.40016 8.39949 8.72254 8.39949 9.12021C8.39949 9.51788 8.72187 9.84025 9.11954 9.84025Z" fill="#505567" stroke="#505567" stroke-width="1.5" stroke-linecap="round" stroke-linejoin="round"/>
<path d="M14.8801 15.6008C15.2778 15.6008 15.6002 15.2785 15.6002 14.8808C15.6002 14.4831 15.2778 14.1608 14.8801 14.1608C14.4825 14.1608 14.1601 14.4831 14.1601 14.8808C14.1601 15.2785 14.4825 15.6008 14.8801 15.6008Z" fill="#505567" stroke="#505567" stroke-width="1.5" stroke-linecap="round" stroke-linejoin="round"/>
</svg>
