<svg width="24" height="24" viewBox="0 0 24 24" fill="none" xmlns="http://www.w3.org/2000/svg">
<path d="M11.4206 20.654L10.9382 21.2282L11.4206 20.654ZM18.25 9.87975C18.25 12.1196 17.1691 14.3037 15.8142 16.1479C14.4677 17.9807 12.9117 19.395 12.0967 20.0797L13.0615 21.2282C13.924 20.5036 15.5785 19.0022 17.023 17.036C18.4592 15.0812 19.75 12.5828 19.75 9.87975H18.25ZM11.903 20.0797C11.088 19.395 9.53202 17.9807 8.1855 16.1479C6.8306 14.3037 5.74971 12.1196 5.74971 9.87975H4.24971C4.24971 12.5828 5.54051 15.0812 6.97667 17.036C8.42122 19.0022 10.0757 20.5036 10.9382 21.2282L11.903 20.0797ZM5.74971 9.87975C5.74971 6.42789 8.54799 3.62961 11.9999 3.62961V2.12961C7.71957 2.12961 4.24971 5.59947 4.24971 9.87975H5.74971ZM11.9999 3.62961C15.4517 3.62961 18.25 6.42789 18.25 9.87975H19.75C19.75 5.59947 16.2801 2.12961 11.9999 2.12961V3.62961ZM12.0967 20.0797C12.0623 20.1086 12.0285 20.1179 11.9999 20.1179C11.9712 20.1179 11.9374 20.1086 11.903 20.0797L10.9382 21.2282C11.5567 21.7478 12.443 21.7478 13.0615 21.2282L12.0967 20.0797Z" fill="#353949"/>
<path d="M12 12.3358C13.5835 12.3358 14.8671 11.0522 14.8671 9.46871C14.8671 7.88524 13.5835 6.60158 12 6.60158C10.4165 6.60158 9.13287 7.88524 9.13287 9.46871C9.13287 11.0522 10.4165 12.3358 12 12.3358Z" stroke="#353949" stroke-width="1.5" stroke-linecap="round" stroke-linejoin="round"/>
</svg>
